<svg xmlns="http://www.w3.org/2000/svg" viewBox="0 0 118.86 152.44"><defs><style>.cls-1{fill:#fff;}</style></defs><g id="Layer_2" data-name="Layer 2"><g id="Layer_1-2" data-name="Layer 1"><g id="oqO3Nt.tif"><path class="cls-1" d="M115.68,51.72c-1.42,1.23-2.51,2.19-3.62,3.13a33.4,33.4,0,0,0,3.56,54.05c3.35,2.1,4.06,4.1,2.33,7.17-5.12,9.07-9.65,18.59-15.76,27-7.11,9.72-14.77,11.19-25.86,6.4a32.8,32.8,0,0,0-27.89.21c-10.54,4.75-16.42,3.73-24-5C7.67,125.08-1.54,102.43.21,76.48c1-15.41,7.72-28.49,22.16-36.2,8.77-4.69,18-5.2,26.8-.71,7.81,4,14.9,3.6,22.75.13,14.7-6.5,28.19-4,39.91,7.18A45.23,45.23,0,0,1,115.68,51.72Z"/><path class="cls-1" d="M88.6,0c2.63,15.18-9,32.83-22.65,35.4-6.09,1.16-7.9-.3-6.86-6.26C61.42,15.72,68.85,6.2,81.66,1.22,83.72.42,86.1.42,88.6,0Z"/></g></g></g></svg>