<svg xmlns="http://www.w3.org/2000/svg" viewBox="0 0 1340.16 986.48"><defs><style>.cls-1{fill:#fff;}</style></defs><g id="Layer_2" data-name="Layer 2"><g id="_1" data-name="1"><path class="cls-1" d="M1080.11,66.22a17.4,17.4,0,0,1,2.93,2.17A16.27,16.27,0,0,0,1080.11,66.22Z"/><path class="cls-1" d="M1032.51,49a43.57,43.57,0,0,1,9.4-2A43.57,43.57,0,0,0,1032.51,49Z"/><path class="cls-1" d="M980.81,49l1.34-.94C981.7,48.41,981.25,48.72,980.81,49Z"/><path class="cls-1" d="M968.83,58.82c2-1.88,4.28-3.91,7-6C973.36,54.7,971,56.72,968.83,58.82Z"/><path class="cls-1" d="M966.29,61.15h0Z"/><path class="cls-1" d="M985.58,45.82c-.81.52-1.62,1-2.43,1.6C983.94,46.89,984.74,46.36,985.58,45.82Z"/><path class="cls-1" d="M979.78,49.77l-1.32,1Z"/><path class="cls-1" d="M977.69,51.31l-1.61,1.25Z"/><path class="cls-1" d="M1213.73,53.39c3.39-.73,10.34-4.37,27.61-6.82l-4.42-1.22a27,27,0,0,0-9.58,1.55c4.79-2.43,3.57-3.3,3.34-4.39l-11.07,3.16c-2.89,1.91-5.5,4.2-8.16,6.26C1211,53.33,1210.41,54.3,1213.73,53.39Z"/><path class="cls-1" d="M267.3,60.05l.46,2.85q.87,5.43,6.3,4.55l2.85-.46-1.33-8.28Z"/><rect class="cls-1" x="766.37" y="13.34" width="5.49" height="8.09" transform="translate(-0.17 11.13) rotate(-0.83)"/><path class="cls-1" d="M1107.72,245a8.34,8.34,0,0,1-1,.68A4.75,4.75,0,0,0,1107.72,245Z"/><path class="cls-1" d="M1114.08,207.39c0-.45.07-.93.11-1.41C1114.15,206.45,1114.12,206.86,1114.08,207.39Z"/><path class="cls-1" d="M1112.72,236.28c.22,5-2.32,10.46-2.77,15.72C1110.42,246.77,1113,240.93,1112.72,236.28Z"/><path class="cls-1" d="M1112,189.56a14.17,14.17,0,0,1,1,3.63A11.25,11.25,0,0,0,1112,189.56Z"/><path class="cls-1" d="M1105.56,195.15a41,41,0,0,0-1.91,8,97.35,97.35,0,0,1,3.38-12.29Z"/><path class="cls-1" d="M1109.5,186.11c.11.53.23,1.17.36,1.79C1109.71,187.14,1109.59,186.58,1109.5,186.11Z"/><path class="cls-1" d="M1109.72,206.55c-.91,3.1-1.85,6.26-2.78,9.45.54,1,1,2.38.86,6l0,2.69c.11.48.35,1.45.48,1.93.21-.67.63-2,.85-2.69,4-14.06,2.58-6.7,4.92-19.72-1.66-3.45-3.51-5.28-5.13-9,.12-2.42.34-7.18.46-9.63a8.49,8.49,0,0,0-1.07-2.11c-.32,1.86-1,5.53-1.26,7.37,0,1.62,0,4.82,0,6.43A58.93,58.93,0,0,1,1109.72,206.55Z"/><path class="cls-1" d="M1114.21,220c-.23-.48-.69-1.47-.91-2-.41,2.38-1.2,7.16-1.61,9.56a22.06,22.06,0,0,0,1.3,2.94C1113.4,227,1113.81,223.46,1114.21,220Z"/><polygon class="cls-1" points="1113.48 196.33 1113.39 195.83 1113.57 197.04 1113.48 196.33"/><path class="cls-1" d="M1127.49,202.72l1.2-2.41.92-4.51-.3.37c-.1.91-.21,1.82-.34,2.71l-1.37-1.16c-.47,2-.75,3.11-1.3,5.41a76.16,76.16,0,0,1-3.6,7.9l-.72,6.46C1124.47,213.7,1127.31,205.31,1127.49,202.72Z"/><path class="cls-1" d="M1130.53,180.6l-.21,3.45c.7-2,1.33-4,1.84-5.77Z"/><path class="cls-1" d="M1125.68,196.61c0-4.28,0-7.89,0-11.07h0c0,3.3,0,6.59,0,9.73,0,.38,0,.88,0,1.43Z"/><path class="cls-1" d="M1115.51,190c1.16-3.8,2.18-7.19,3.07-8.65C1117.53,183.11,1116.53,186.61,1115.51,190Z"/><path class="cls-1" d="M1121.64,199.46l.34-1.17c-.39,1.24-.76,2.28-1.37,3.75a24.35,24.35,0,0,1,2.07-4Z"/><path class="cls-1" d="M1115,237.13l-.07.12a.09.09,0,0,1,0,0S1115,237.16,1115,237.13Z"/><path class="cls-1" d="M1120.82,209.76a57.38,57.38,0,0,0-.21-7.72A64,64,0,0,1,1120.82,209.76Z"/><path class="cls-1" d="M1125.68,198.67h0c0,.43,0,.82,0,1.13C1125.67,199.42,1125.68,199.05,1125.68,198.67Z"/><path class="cls-1" d="M1076.35,169.11l-.29,2.47-.59,4.36C1075.8,173.66,1076.19,171.31,1076.35,169.11Z"/><path class="cls-1" d="M1070.36,142.29c-2.42,6.46-3.17,4.47-4.1-.17C1067.19,146.77,1067.94,148.76,1070.36,142.29Z"/><path class="cls-1" d="M1071.85,143.28c0,2.47,0,5.57-.2,9.44C1071.84,148.84,1071.88,145.76,1071.85,143.28Z"/><path class="cls-1" d="M1070.33,154.75l-.2-.35-.28-.09A1.5,1.5,0,0,1,1070.33,154.75Z"/><path class="cls-1" d="M1071.51,137.55a47.83,47.83,0,0,1,.33,5.55,66.35,66.35,0,0,0-.57-8.31C1071.33,135.52,1071.41,136.41,1071.51,137.55Z"/><path class="cls-1" d="M1065.55,185.42c-.39.2-.77.7-1.08,2A3.15,3.15,0,0,1,1065.55,185.42Z"/><path class="cls-1" d="M1061.24,107c.64,2.12,1.56,4.24,2.23,7C1062.8,111.2,1061.9,109.06,1061.24,107Z"/><path class="cls-1" d="M1064.19,188.88c-.19,3.17-.19,4.82-.18,6.39C1064.07,193.1,1064.14,191,1064.19,188.88Z"/><path class="cls-1" d="M1080.11,66.22a17.4,17.4,0,0,1,2.93,2.17A16.27,16.27,0,0,0,1080.11,66.22Z"/><path class="cls-1" d="M1100.16,255.15c-.15-.22-.5-.67-.65-.89l-.37-.35A10.7,10.7,0,0,1,1100.16,255.15Z"/><path class="cls-1" d="M1100.74,209.24l-1.34-1.54-.74.19c-.36,2-1.09,5.92-1.45,7.91l-.1.09a8,8,0,0,1,1.28-.66Z"/><path class="cls-1" d="M1066.73,73.63c3.24,3,3.17,1.46,11.61,9.49C1069.94,75.11,1070,76.65,1066.73,73.63Z"/><path class="cls-1" d="M1097.89,222.45c.85,0,2-.77,5.59-10.39-.29.75-.59,1.49-.87,2.2C1099.9,220.37,1098.71,222,1097.89,222.45Z"/><path class="cls-1" d="M1092.87,227.53l1.08-1.86C1093.61,226.24,1093.26,226.85,1092.87,227.53Z"/><path class="cls-1" d="M1102.5,212.05a15.42,15.42,0,0,0,.11,2.21A20.19,20.19,0,0,1,1102.5,212.05Z"/><path class="cls-1" d="M1093.51,242.23a1.9,1.9,0,0,1-1.59.36A1.55,1.55,0,0,0,1093.51,242.23Z"/><path class="cls-1" d="M955.36,74.68c-.36.61-.72,1.22-1.11,1.86l-1.34,2.89C953.59,78,954.34,76.48,955.36,74.68Z"/><path class="cls-1" d="M1063.78,202.11l.21-2.33c-.17,1.56-.44,3.58-.87,6.45C1063.33,204.89,1063.55,203.53,1063.78,202.11Z"/><path class="cls-1" d="M908.64,642.94v2.54a18.4,18.4,0,0,1,2.54,9.61h2.27v-4.8c-1.52-3.2-2.27-5.65-2.27-7.35Z"/><path class="cls-1" d="M709.31,631.05c.24.37.47.76.69,1.15.25-1.47.49-2.85.72-4.15l-1.51.05Z"/><path class="cls-1" d="M947.08,331.41c1,.91.19-5-1.27-12.12C947.25,326.44,948,332.27,947.08,331.41Z"/><path class="cls-1" d="M941.84,326.51c1.08,1.07.9-1.74,4.72,4.11C942.7,324.71,942.87,327.49,941.84,326.51Z"/><path class="cls-1" d="M936.84,209.17a58.88,58.88,0,0,1,2.13-7.92A59.11,59.11,0,0,0,936.84,209.17Z"/><path class="cls-1" d="M825.85,538.39v-2.54q-2.55,0-26.85-26.85h-2.26Q796.74,517.47,825.85,538.39Z"/><rect class="cls-1" x="380.87" y="240.62" width="17.63" height="2.6" transform="translate(-3.32 5.43) rotate(-0.8)"/><path class="cls-1" d="M262.94,831.51q11.44-10.28,15.23-36.8Q272.83,795.27,262.94,831.51Z"/><rect class="cls-1" x="348.3" y="737.63" width="24.02" height="2.54" transform="translate(-74.12 41) rotate(-5.91)"/><path class="cls-1" d="M609.22,510.36l-.1-2.95q-3,.1-32.15-30l-2.07.07a6.26,6.26,0,0,1-.47.52Q575.57,487.88,609.22,510.36Z"/><path class="cls-1" d="M325.08,622.24c-3.5.93-5.1,2.9-4.78,5.9l.26,2.53c3.55-.37,5.15-2.34,4.78-5.9Z"/><path class="cls-1" d="M1135.24,164.13c1-.24,1.67-.28,2,.05C1136.91,163.71,1136.11,163.85,1135.24,164.13Z"/><path class="cls-1" d="M1152.87,144.25a10.46,10.46,0,0,1-.7-3,11.8,11.8,0,0,1-.25-1.45A7.67,7.67,0,0,0,1152.87,144.25Z"/><path class="cls-1" d="M1150.07,119.75l7.9-8.45C1154.66,114.78,1152.53,116.88,1150.07,119.75Z"/><path class="cls-1" d="M1144.67,161.58l.85,0c1.35-2,2.48-4.19,4-6.08l-.73,0c4.1-8.49-4.32-2.17-6.56-1,1-1.93,4.07-5.1,5.42-6.85,1-3.16,4.92-10.81-10.53,7.14l-2.83,6.56C1145.89,149.29,1139.69,163.43,1144.67,161.58Z"/><path class="cls-1" d="M957.44,181.91c-.67.93-1.41,1.71-3.24,6.61C956,183.68,956.76,182.91,957.44,181.91Z"/><path class="cls-1" d="M1136.9,189c4.08-11,6.82-14.73,8.14-18.52C1143.56,174.55,1140.8,178.37,1136.9,189Z"/><path class="cls-1" d="M1137.44,164.79a1.17,1.17,0,0,0-.1-.5A1.38,1.38,0,0,1,1137.44,164.79Z"/><path class="cls-1" d="M1133.62,162.92a11.92,11.92,0,0,0,.09,1.64Z"/><path class="cls-1" d="M1156.07,146a3.19,3.19,0,0,1-1.34-.1A2.76,2.76,0,0,0,1156.07,146Z"/><path class="cls-1" d="M1184.3,96.89c5.22-4.27,10.12-9.31,15.86-13,.45-.63,1.35-1.92,1.81-2.55-3.83.84-3.09-1.59-7.1-.57A28.14,28.14,0,0,0,1191.4,83a12.24,12.24,0,0,1,1.51,2.49l-7,5.53C1190,89.59,1182.21,96.83,1184.3,96.89Z"/><path class="cls-1" d="M957.93,206.12c-1.12,5.55-3.12,13.27-6.86,28.08C954.86,219.23,956.83,211.6,957.93,206.12Z"/><path class="cls-1" d="M952.29,78.77l1.34-1.52Z"/><path class="cls-1" d="M1192,91.79c-7.59,6-13.8,10.34-11.17,7C1178.15,102.17,1184.39,97.84,1192,91.79Z"/><path class="cls-1" d="M1186.52,112.42c.06,1.39-2.39,5.27-9.35,14.11l4.28-5.22C1185,116.43,1186.86,113.73,1186.52,112.42Z"/><path class="cls-1" d="M1183,92.11c-.52,1.28,1.21.39-.45,3.64C1184.31,92.42,1182.57,93.32,1183,92.11Z"/><path class="cls-1" d="M1206.34,81l-4.48,3.28C1203.4,83.15,1204.91,82.05,1206.34,81Z"/><path class="cls-1" d="M940.7,307.76c-.73,3.34-2.67,2-3.33,5.47.14.89.4,2.63.53,3.5a13.83,13.83,0,0,1,2.88-.35c.37,1.89,1.11,5.64,1.47,7.5.69-3.75,3.31,4.95,4.35,3.32L942.35,310C941.94,309.47,941.12,308.33,940.7,307.76Z"/><path class="cls-1" d="M1138.94,439.51c-.66.84-1.48,1.79-2.41,2.79C1137.49,441.27,1138.29,440.34,1138.94,439.51Z"/><path class="cls-1" d="M1154.22,343.59a182.34,182.34,0,0,0,16.9-18.88A187.27,187.27,0,0,1,1154.22,343.59Z"/><path class="cls-1" d="M1131.06,430.05a2.3,2.3,0,0,0-.2-1.25A2.3,2.3,0,0,1,1131.06,430.05Z"/><path class="cls-1" d="M1197.58,290.93c-3.74,5.46-6.2,9.66-8.26,13.3C1191.38,300.59,1193.86,296.38,1197.58,290.93Z"/><path class="cls-1" d="M1116.55,443.17a29.77,29.77,0,0,1-2.09,3.21A18.47,18.47,0,0,0,1116.55,443.17Z"/><path class="cls-1" d="M1203.32,323.29a39,39,0,0,0-3.47,4.78A39.35,39.35,0,0,1,1203.32,323.29Z"/><path class="cls-1" d="M1230.65,236.27c-4.69,5.12-7.62,8.32-9.67,13.53C1223,244.63,1226,241.38,1230.65,236.27Z"/><path class="cls-1" d="M1207.32,275.18l.89-1.38c-.7,1-1.33,1.95-2,2.91Z"/><path class="cls-1" d="M1118.47,460.39l11.59-11.5-8,7.88Z"/><path class="cls-1" d="M1099.53,448.06a127,127,0,0,1,12.53-7.61q-2.25,1.19-4.58,2.45A52.47,52.47,0,0,0,1099.53,448.06Z"/><path class="cls-1" d="M1112.06,440.45c-1.31,1.3-3.9,3.9-5.21,5.22a96.82,96.82,0,0,1-5.53,9.3c-3,2.09-6.14,4.2-9.25,6.32-.36,1.25-1,2.75-3.86,5.71l-2,2.3c-.28.51-.83,1.49-1.09,2,.66-.45,2-1.34,2.67-1.78,13.65-9.41,6.89-4.17,18.64-13.58,1.56-3.88,1.67-6.62,3.47-10.69,2.05-1.87,6.11-5.54,8.18-7.42a9.25,9.25,0,0,0,1-2.45Z"/><path class="cls-1" d="M1115.14,442l1.85-2.64Z"/><path class="cls-1" d="M1243.78,212.39a63.3,63.3,0,0,1-3.49,6.08A62.11,62.11,0,0,0,1243.78,212.39Z"/><path class="cls-1" d="M1118.87,445.63c3.92-2.22,7.38-4.23,9.19-4.75C1125.94,441.51,1122.39,443.59,1118.87,445.63Z"/><path class="cls-1" d="M1117.29,384.56l-.12-.27a1.71,1.71,0,0,1,0,.73Z"/><path class="cls-1" d="M1280,200.44c-1.83,4.71-2.15,6.92-3.52,10.23C1277.88,207.34,1278.21,205.11,1280,200.44Z"/><path class="cls-1" d="M1129,375.08c5.67-5.71,7.77-8.05,9-9.33C1136.66,367,1134.72,369.26,1129,375.08Z"/><path class="cls-1" d="M1292,117.45c0,6.33-1.18,7.46-1.47,8.69C1290.84,125,1292,123.85,1292,117.45Z"/><path class="cls-1" d="M1282.07,104.21c-1.7-4.69-2.73-11.37-9.92-20.38C1279.41,92.94,1280.37,99.61,1282.07,104.21Z"/><path class="cls-1" d="M1301.07,99.36a36.47,36.47,0,0,0-1.88-7A36.84,36.84,0,0,1,1301.07,99.36Z"/><path class="cls-1" d="M1270,158.92c-2,5.51-3.9,10.55-4.57,12.34C1267.05,167.26,1268.48,163,1270,158.92Z"/><path class="cls-1" d="M1301.38,243.54q.46-1.08.93-2.22c.34-1.08,1-3.24,1.35-4.32C1303.05,239,1302.41,241,1301.38,243.54Z"/><path class="cls-1" d="M1255.34,192.05c2.29-4,3.3-5.58,6.39-14.91C1258.69,186.32,1257.63,188.06,1255.34,192.05Z"/><path class="cls-1" d="M1249.93,197.31l-1,2C1249.24,198.66,1249.59,198,1249.93,197.31Z"/><path class="cls-1" d="M1267.72,199.29c-8.86,13.27-10.82,15.16-11.83,17.27C1256.91,214.47,1258.94,212.45,1267.72,199.29Z"/><path class="cls-1" d="M1246.86,265.46c3-5.33,5.51-9.52,4.24-10.77C1252.36,255.92,1249.89,260.14,1246.86,265.46Z"/><path class="cls-1" d="M1334,149.64c-.58,5.64-1.15,11.19-1.7,16.6Z"/><path class="cls-1" d="M1331.28,174.77c-.44,2.51-1,4.81-1.36,7C1330.37,179.5,1330.86,177.2,1331.28,174.77Z"/><path class="cls-1" d="M1303.32,239.77l.69-1.08Z"/><path class="cls-1" d="M1060.83,105.6c-1.41-2.59-2.44-4.77-3.29-6.58.86,1.89,1.93,4.1,3.32,6.68Z"/><path class="cls-1" d="M1106,402.9l-4.18,3.25,6.66-5Z"/><path class="cls-1" d="M973.4,369.32a2.77,2.77,0,0,0,.77-1A3.23,3.23,0,0,1,973.4,369.32Z"/><path class="cls-1" d="M976.89,108.53c-1.92,3.12-2.13,5-4.24,9.37C974.78,113.54,975,111.63,976.89,108.53Z"/><path class="cls-1" d="M964,266.1c.21.83.38,1.57.57,2.3C964.42,267.68,964.23,266.93,964,266.1Z"/><path class="cls-1" d="M972.86,55.2l-1.14,1Z"/><path class="cls-1" d="M968.12,369.46l-1.37-.4a8.1,8.1,0,0,0,4.31,1.05A11.43,11.43,0,0,1,968.12,369.46Z"/><path class="cls-1" d="M978.54,377.76c-5.21-6.56-3.87,2.36-4.48,4.7-.7-1.75-2.11-5.23-2.83-7-2.43-1.93-6.12-8.32.07,11.16l3.42,5.09c-2.54-14.36,4.76-3.26,6.24-8l.5-.66L979,377.21Z"/><path class="cls-1" d="M977.44,392.26c.38-.86.76-1.43,1.22-1.56C978.08,390.76,977.73,391.45,977.44,392.26Z"/><path class="cls-1" d="M976.87,393.66v0l-1.31-.65A13.64,13.64,0,0,0,976.87,393.66Z"/><path class="cls-1" d="M1117,456.66c-1.28.71-2.39,1.27-4,2a30.37,30.37,0,0,1,4.71-1.76l-1.89.43Z"/><path class="cls-1" d="M986.49,145a94.83,94.83,0,0,0-4.82,10.06C983.6,150.42,985.8,146.4,986.49,145Z"/><path class="cls-1" d="M1017.76,102c4.06-1.59,6.36-2.39,8.44-4.65C1024.14,99.54,1021.81,100.35,1017.76,102Z"/><path class="cls-1" d="M1032.51,49a43.57,43.57,0,0,1,9.4-2A43.57,43.57,0,0,0,1032.51,49Z"/><path class="cls-1" d="M1038.64,90.75l-.66-.15a1.21,1.21,0,0,0-.63.11C1037.89,90.47,1038.22,90.74,1038.64,90.75Z"/><path class="cls-1" d="M996,129.16a32.19,32.19,0,0,0-5.41,10A33,33,0,0,1,996,129.16Z"/><path class="cls-1" d="M995.84,108.71c-1,1.59-2.88,2.63-11.41,12.05C993,111.27,994.86,110.32,995.84,108.71Z"/><path class="cls-1" d="M1011.07,71.13c-3.87,2.29-6.67,4.74-6.81,6.35C1004.41,75.87,1007.21,73.42,1011.07,71.13Z"/><path class="cls-1" d="M966.57,338.39c-2.31-4.75-4.18-7.12-5.39-7.35,1.26.46,3.78,3.77,7.77,12.76Z"/><path class="cls-1" d="M1083.93,408.31a4.24,4.24,0,0,1,2.55-1C1086,407.24,1085.3,407.42,1083.93,408.31Z"/><path class="cls-1" d="M1086.25,455l6.37-3.68c0-.55.13-1.67.18-2.22l-.69-.34-7.19,6h-.14A9.37,9.37,0,0,1,1086.25,455Z"/><path class="cls-1" d="M1090.15,457c-6.7,3.51-8.83,4.15-9.82,4,.82.76,2.78.48,21.18-10.76C1097.75,452.46,1094,454.68,1090.15,457Z"/><path class="cls-1" d="M1085.65,477.7l8.88-8.21c.2-.57.6-1.72.79-2.28-2.09,1.79-6.27,5.33-8.38,7.14Z"/><path class="cls-1" d="M1105,457.47l-1.13,1.15Z"/><polygon class="cls-1" points="1105.7 456.81 1106.05 456.45 1105.83 456.67 1105.7 456.81"/><path class="cls-1" d="M1090.15,457c.5-.7,1.06-1.35,1.62-2A22.32,22.32,0,0,0,1090.15,457Z"/><path class="cls-1" d="M1100.24,472.08l-2.89,2.79Z"/><path class="cls-1" d="M1111,460.88l-3.87,4.26Z"/><path class="cls-1" d="M1076.71,414.72c1.93-1.8,3.82-3.57,5.75-5.35C1079.53,412,1078.08,413.37,1076.71,414.72Z"/><polygon class="cls-1" points="1112.32 449.27 1112.65 448.81 1111.82 449.91 1112.32 449.27"/><path class="cls-1" d="M1070.69,420.56l2.06-2c-1.45,1.35-3.38,3.1-6.22,5.6Z"/><path class="cls-1" d="M988.08,387.43c1.28,2.26,2.93,4.55,5.76,8.51C990.9,391.81,989.29,389.54,988.08,387.43Z"/><path class="cls-1" d="M1049.77,466.93l-2.57,1.54c.62-1.38.63-2.55-1.88-2.56a6.76,6.76,0,0,1-2.81-.21c1.41,1.73,2.75,3.46,4,5.22a16.32,16.32,0,0,1,5.13-1.14,3.22,3.22,0,0,0,.62-1.11C1055.88,465.48,1050.51,467.53,1049.77,466.93Z"/><path class="cls-1" d="M991.27,403.18c3,3.61,2.51,2.65,7.75,5.19C993.79,405.83,994.29,406.77,991.27,403.18Z"/><path class="cls-1" d="M955.41,385.05a196.83,196.83,0,0,0,8.12,19.31C965.15,402.45,958.36,388.25,955.41,385.05Z"/><path class="cls-1" d="M913,276.57c.22,2.9.44,5.75.67,8.6l3.46,7.34c2.34,1.25,2.89,2.7,1.1-23.42l-1.62,3.19a32.85,32.85,0,0,0,0,7.34C915.19,275.68,914.07,276.53,913,276.57Z"/><path class="cls-1" d="M132.14,376.66q1.11,6.85,18.91,28.28,5.7-.92,4.83-6.34-13.71-14.18-15.18-23.32Z"/><path class="cls-1" d="M66.27,109.73l3.73,5Q83.43,109,82.64,104.16l-.45-2.85c-.5-3-2.69-4.54-6.59-4.5L73,97.22q-7.86,5.67-7.22,9.66Z"/><rect class="cls-1" x="645.64" y="305" width="5.49" height="8.38" transform="translate(-4.36 9.31) rotate(-0.82)"/><path class="cls-1" d="M1337.81,107.86c-2-1-3.73.14-5.6.33-1-4.93-3.88-12.48-4.45-11a51.38,51.38,0,0,0-2.23-7.16c-1.65-1.18-3-1.41-5-3.66-2.47-8.73-5-11.44-5.76-13.62a38.52,38.52,0,0,0-6.17-9,50.38,50.38,0,0,0-10.7-9.41c-1,.92-1.53,2.24-3.53,2.42-18.33-12.32-37.46-12.26-54.49-8.28-14.3,3.27-12.44,6.27-17.09,9l-10,5.2a200.24,200.24,0,0,0-17.51,11c-4.65,2.69-8.14,4.71-11.76,7.12l-9,7.35c-.53,1.7-2.37,4.31-6.25,8.17-3.4,2.51-6.6,5.33-9.9,8-.34.68-1,2.07-1.37,2.76s-1.08,2.09-1.45,2.78l-7.42,7.51c-2.24,1.63-1.78,1.51-4.61,4-3,4.66-6,9.4-9.53,14.42l2.55-1.93c3.6-3.8,9.13-10.75,10.16-10,.76-1,1.46-1.85,2.12-2.66-.58,2.47-2.84,6.69-4.87,10.64-4.49,5.75-5.35,8.75-7.49,12.62l4.73-2.45,9.74-8.62c-2.36,4.16-4.51,8.15-7.48,12.81-3,3.77-5.82,7.59-8.48,11.48-.2-.59-.6-1.75-.79-2.34l-.16,1.25c.16-3.08-.14-5.11-2.72-2.64,0-1.31-.08-2.62-.17-3.93-.33-3.92-.15-7.59-.26-11.72s-.38-8.54-.82-12.83c-1.89-14.81-5.18-31-12.49-45.82-2.78-4.83-5.31-9.77-8.33-14.74-3.72-5-7.15-10.09-11.58-14.73-5-4.43-9.74-9.06-15.39-12.29-5.85-3-11.69-5.8-17.49-7.26-7.8-2.28-16.3-4.58-24.46-4.14-3.8,1.16-3.51,1.68-13.17,3.5l-11.36,2.38-7.15,2.47c-3.86,1.35-6.1,2-7.42,2.34-2.46.74-1.8-.4-3.46-.35-13.91,7.22-24.57,16.7-34.37,26.66-7.11,6.77-9.56,12.23-14.06,18.63l1.38-1.57c-.58.66-1.19,1.36-1.84,2.12,0,.48.07,1.43.09,1.92-3.62,5.18-6.74,7.88-9.85,13-2,3.25-4.12,6.42-6.08,9.57l-.14-9.45q-1.92-32.64-30.23-32.24-6.14,16.29-10.46,16.34-.07-4.62,5-13.37L894.5,63q-30.06.42-45.53,30.42-3.11,25.77-68.9,114.88Q780,202.24,793,181l-2.6,0q-45.07,62.2-45,71.17l-2.89,0-.15-10.69q-.3-20.23,7.78-21.79a22,22,0,0,0-2.76-10.95Q765.07,108.21,772,29.48a2.55,2.55,0,0,1-2.93-2.84q-10.64,3.9-10.38,22.11l-2.6,0a20.31,20.31,0,0,0-3-10.94q-18,32.64-25.58,111.66l-2.6,0-.16-11L733.5,2.86l-5.2.07,0,2.61q.15,11-5,35.33l-2.6,0-.15-10.69-5.49.07q-4.89,43.15-4.84,46l-2.6,0-.35-24.27-5.49.07-22.67,133.3q-2.61,0-2.64-2.85l-5.45,3,5.6,8,.23,16.19-2.6,0-.08-5.49-5.49.08q.43,29.78-19.74,135.86l-2.89,0-.08-5.2,2.7-13.63-5.49.08q-20.41,89-20.1,111.29,3.92,10.94,24.44,10.64l27.16-.39q34.81-31.43,53.18-82.28l2.6,0,0,2.9L728,369.19l0,2.61,53.33-71.3q14.88-10,69.24-90.6-10.3,47.85-10.21,54.49l5.49-.07,10-49,2.89,0,0,2.89q-2.7,14.21-2.66,16.23-41.34,142.23-40.5,201.19l5.5-.08.11,8.09-2.41,13.62,2.61,0q3.07,34.07,19.65,40.48l8.09-.12,5.46-2.68q4.26-4.68,12.86-30.24,13.26-84,17.89-84.09,10-65.76,25.77-98.08L917,241.32c.8,10,2,19,3.06,29,1.69,11.15,3.91,10.41,5.92,14.47l1.78,9.1a162.61,162.61,0,0,0,3.42,16.86c.74,4.39.83,7.84,1.15,11.54l2.13,9.55c1.26,1,2.54,3.4,4.21,7.77l2,10.62c.42.51,1.25,1.56,1.68,2.08L944,354.5l2.72,8.54c.3,2.3.26,2,.7,5.22,1.77,4.31,4.32,8.44,6.73,13.08-.1-.88-.19-1.79-.3-2.7-1.55-4.16-4-11.32-2.71-11.89-2-5.67-2.89-8.21-4.82-13.71l3.8,10.81c1.68,1.34,3.57,5.06,5.85,8.28,2.52,5.71,4.61,7.56,6.79,10.73l.39-4.6c-.61-3.53-1.59-7.19-2.14-10.95,2.06,3.55,4.5,6.71,6.87,10.9,1.83,3.76,3,7.68,4.46,11.47l-2.26-.42.87.68c-3.2-2.06-5.33-2.54-2.08,6.53.68-.43,1.29-1,2-1.38,2.76,4.4,6,8.16,8.49,9.77,10.92,14.77,12.21,9.24,9.43,4.24,1.39.07-.38-4.58-1.65-8.37,3.8,4.37,8.1,10.71,12.15,16.35-1.33-3.91.82-2.56-.28-6.23l2.92,2.84c-.2-.37-.52-.95-.79-1.47.59,1.09,1.18,2.16,1.92,3.51,1.23.64,2.84,3,4.3,5.69a25.67,25.67,0,0,1,3.52,6.95l9.71,14.21c-.72,1,4.17,8.69,5,7.12,6.49,7,13.49,17.15,19.42,22a13.83,13.83,0,0,0-3.55,2.85,106.51,106.51,0,0,0-4.17,11.67l-2.41.66c.07,2,1.38,3.79.17,6-5.94,2-2.71,2.71-3,3.91l2.42-.46q-8.49,32-20.71,100.05l5.42,2.23,3.51-14.67,2.23-5.42,2.87,1q-25.51,116.73-38.59,146.72l5.42,2.23,2.23-5.42,2.87,1.28-7.33,16.26-8.93,6.06,4.15,5.11c.84-1.92,2.12-2.45,3.82-1.6L956.6,895.22l5.74,2.23,10.85-24.56,2.55,1.28q-1.28,2.87-15,48.8l5.42,2.55L971,914.36l2.87,1.27q-5.43,27.12-10.21,38l-1.28,2.87,5.43,2.55,49.75-141.94,4.79-10.84,2.55,1.27q-26.47,83.58-22.33,124.4a23.54,23.54,0,0,0,7.66-9.89l2.87,1.28q-8,18.18,1.28,26.79c.84-1.91,2.12-2.44,3.82-1.6q27.11-82.92,52.63-192.65a27.42,27.42,0,0,0,7.66-9.88q-7.67-5.43,1.28-25.52l5.1-10.85,2.55,1.28q-3.83,8.92,15,91.54l2.87,1.28q-4.47-27.12-1.59-33.49,28.38,119,20.09,146.4,3.18,37.32,33.49,50.71l5.1-4.14q-1.59-11.49.64-16.27,4.47,2.24,3.51,21.37,28.38,12.75,44.66-19.46l12.11-27.43,45.62-169.68q-1.92-39.87,16.26-110.68-4.77-1.92,18.51-93.14,1.9-29.67-.33-36l-4.46-5.42-8.29-3.51q-19.14-.64-37.32,32.53l-2.55-1.27-3.51,15-3.51,8.29-5.42-2.55q-26.48,59.64-45.93,222-1,1.92-4.47,17.55l-1.28,2.87L1184,796l10.85-54.22-5.74-2.23q-2.88,6.69-13.08,59.32Q1155.64,694,1144.79,677.37L1121.51,582l-1.28,2.55.32,6.7-1,2.87-2.87-1.28q3.19-59.33-18.5-106.21l-9.91-4.38c1.78-.88,4.4-2.45,9.66-5.77l9.59-9,8.73-4,5.24-3.36c0,.47,0,1.39.08,1.85,7.45-5.73,14.48-12.41,21.75-18.63l10.06-8.15c3.1-3,6.08-6.2,8.92-9.44,5.63-6.59,12.18-12.17,18.16-18.55,10.25-10.91,21.81-21.47,30.55-32.87,10.74-14.95,25.12-29.28,33.92-43.56,3.74-4.24,7.44-8.79,11.09-13.3,1.06-2.68-.53-3.17,3.46-9.61,15.24-23.5,12.8-17.4,15.44-18.75,7-11.23,13.93-22.5,20.79-33.59,5.33-7.19,7-13.53,10.86-20.77-.51.79-.86,1.34-1.2,1.84.51-.77,1-1.59,1.62-2.48-.09-.49-.26-1.47-.33-2,3-5.87,6-9.24,8.89-15.21,3-6.24,6.29-12.07,9.07-18.11,1.47-4,2.94-8.08,4.38-12.07l.56-3.13c4.05-9.75,5.19-20.8,7.6-31.5l1-2.19C1341.15,135.92,1340.53,121.53,1337.81,107.86ZM939,201.25a58.88,58.88,0,0,0-2.13,7.92A59.11,59.11,0,0,1,939,201.25Zm2.87,125.26c1,1,.86-1.8,4.72,4.11C942.74,324.77,942.92,327.58,941.84,326.51Zm.41-2.63c-.36-1.86-1.1-5.61-1.47-7.5a13.83,13.83,0,0,0-2.88.35c-.13-.87-.39-2.61-.53-3.5.66-3.5,2.6-2.13,3.33-5.47.42.57,1.24,1.71,1.65,2.28l4.25,17.16C945.56,328.83,942.94,320.13,942.25,323.88Zm4.83,7.53c1,.86.17-5-1.27-12.12C947.27,326.46,948.07,332.32,947.08,331.41Zm8.28-256.73c-1,1.8-1.77,3.31-2.45,4.75l1.34-2.89C954.64,75.9,955,75.29,955.36,74.68Zm2.08,107.23c-.68,1-1.43,1.77-3.24,6.61C956,183.62,956.77,182.84,957.44,181.91ZM953.63,77.25l-1.34,1.52Zm-2.56,157c3.74-14.81,5.74-22.53,6.86-28.08C956.83,211.6,954.86,219.23,951.07,234.2ZM1185.88,91l7-5.53A12.24,12.24,0,0,0,1191.4,83a28.14,28.14,0,0,1,3.47-2.29c4-1,3.27,1.41,7.1.57-.46.63-1.36,1.92-1.81,2.55-5.74,3.74-10.64,8.78-15.86,13C1182.21,96.83,1190,89.59,1185.88,91Zm20.46-10c-1.43,1.06-2.94,2.16-4.48,3.28ZM1183,92.11c-.47,1.21,1.27.31-.45,3.64C1184.25,92.5,1182.52,93.39,1183,92.11Zm-2.23,6.64c-2.63,3.38,3.58-.91,11.17-7C1184.39,97.84,1178.15,102.17,1180.81,98.75Zm5.71,13.67c.34,1.31-1.51,4-5.07,8.89l-4.28,5.22C1184.13,117.69,1186.58,113.81,1186.52,112.42Zm-36.45,7.33c2.46-2.87,4.59-5,7.9-8.45Zm6,26.21a2.76,2.76,0,0,1-1.34-.1A3.19,3.19,0,0,0,1156.07,146Zm-3.2-1.71a7.67,7.67,0,0,1-.95-4.48,11.8,11.8,0,0,0,.25,1.45A10.46,10.46,0,0,0,1152.87,144.25Zm-15.7,10.49c15.45-18,11.51-10.3,10.53-7.14-1.35,1.75-4.37,4.92-5.42,6.85,2.24-1.14,10.66-7.46,6.56,1l.73,0c-1.57,1.89-2.7,4.09-4,6.08l-.85,0c-5,1.85,1.22-12.29-10.33-.28Zm7.87,15.75c-1.32,3.79-4.06,7.55-8.14,18.52C1140.8,178.37,1143.56,174.55,1145,170.49Zm-9.8-6.36c.87-.28,1.67-.42,2,.05C1136.91,163.85,1136.22,163.89,1135.24,164.13Zm2.1.16a1.17,1.17,0,0,1,.1.5A1.38,1.38,0,0,0,1137.34,164.29Zm-3.63.27a11.92,11.92,0,0,1-.09-1.64Zm-3.18,16,1.63-2.32c-.51,1.8-1.14,3.74-1.84,5.77Zm-4.87,5h0c0,3.18,0,6.79,0,11.07l0,.1c0-.55,0-1.05,0-1.43C1125.63,192.14,1125.65,188.85,1125.66,185.55Zm0,13.12c0,.38,0,.75,0,1.14,0-.31,0-.7,0-1.13Zm.62,4.46c.55-2.3.83-3.43,1.3-5.41l1.37,1.16c.13-.89.24-1.8.34-2.71l.3-.37-.92,4.51-1.2,2.41c-.18,2.59-3,11-5.51,14.77l.72-6.46A76.16,76.16,0,0,0,1126.3,203.13Zm-4.32-4.84-.34,1.17,1-1.43a24.35,24.35,0,0,0-2.07,4,57.38,57.38,0,0,1,.21,7.72,64,64,0,0,0-.21-7.72C1121.22,200.57,1121.59,199.53,1122,198.29Zm-3.4-16.9c-.89,1.46-1.91,4.85-3.07,8.65C1116.53,186.61,1117.53,183.11,1118.58,181.39ZM1115,237.13s0,.06,0,.09a.09.09,0,0,0,0,0Zm-3.3-9.55c.41-2.4,1.2-7.18,1.61-9.56.22.49.68,1.48.91,2-.4,3.48-.81,7-1.22,10.54A22.06,22.06,0,0,1,1111.69,227.58Zm1,8.7c.3,4.65-2.3,10.49-2.77,15.72C1110.4,246.74,1112.94,241.27,1112.72,236.28Zm1.47-30.3c0,.48-.07,1-.11,1.41C1114.12,206.86,1114.15,206.45,1114.19,206Zm-.71-9.65.09.71-.18-1.21Zm-.56-3.14a14.17,14.17,0,0,0-1-3.63A11.25,11.25,0,0,1,1112.92,193.19Zm-3.06-5.29c-.13-.62-.25-1.26-.36-1.79C1109.59,186.58,1109.71,187.14,1109.86,187.9Zm-4.3,7.25,1.47-4.29c.3-1.84.94-5.51,1.26-7.37a8.49,8.49,0,0,1,1.07,2.11c-.12,2.45-.34,7.21-.46,9.63,1.62,3.67,3.47,5.5,5.13,9-2.34,13-.92,5.66-4.92,19.72-.22.68-.64,2-.85,2.69-.13-.48-.37-1.45-.48-1.93l0-2.69c.19-3.59-.32-4.95-.86-6,.93-3.19,1.87-6.35,2.78-9.45a58.93,58.93,0,0,0-2.65-9.26c0-1.61,0-4.81,0-6.43a97.35,97.35,0,0,0-3.38,12.29A41,41,0,0,1,1105.56,195.15Zm2.16,49.82a4.75,4.75,0,0,1-1,.68A8.34,8.34,0,0,0,1107.72,245Zm-5.11-30.71c.28-.71.58-1.45.87-2.2-3.61,9.62-4.74,10.39-5.59,10.39.82-.49,2-2.08,4.72-8.19a15.42,15.42,0,0,1-.11-2.21A20.19,20.19,0,0,0,1102.61,214.26Zm-2.45,40.89a10.7,10.7,0,0,0-1-1.24l.37.35C1099.66,254.48,1100,254.93,1100.16,255.15Zm-3-39.35c.36-2,1.09-5.93,1.45-7.91l.74-.19,1.34,1.54-2.35,6a8,8,0,0,0-1.28.66Zm-3.26,9.87-1.08,1.86C1093.26,226.85,1093.61,226.24,1094,225.67Zm-.44,16.56a1.55,1.55,0,0,1-1.59.36A1.9,1.9,0,0,0,1093.51,242.23ZM1083,68.39a17.4,17.4,0,0,0-2.93-2.17A16.27,16.27,0,0,1,1083,68.39Zm-4.7,14.73c-8.44-8-8.37-6.46-11.61-9.49C1070,76.65,1069.94,75.11,1078.34,83.12Zm-2,86c-.16,2.2-.55,4.55-.88,6.83l.59-4.36Zm-4.5-25.83c0,2.48,0,5.56-.2,9.44C1071.82,148.85,1071.88,145.75,1071.85,143.28Zm-.34-5.73c-.1-1.14-.18-2-.24-2.76a66.35,66.35,0,0,1,.57,8.31A47.83,47.83,0,0,0,1071.51,137.55Zm-1.15,4.74c-2.42,6.47-3.17,4.48-4.1-.17C1067.19,146.76,1067.94,148.75,1070.36,142.29Zm0,12.46a1.5,1.5,0,0,0-.48-.44l.28.09Zm-4.78,30.67a3.15,3.15,0,0,0-1.08,2C1064.78,186.12,1065.16,185.62,1065.55,185.42Zm-1.36,3.46c0,2.12-.12,4.22-.18,6.39C1064,193.7,1064,192.05,1064.19,188.88Zm-.72-74.93c-.67-2.71-1.59-4.83-2.23-7C1061.9,109.06,1062.8,111.2,1063.47,114Zm.52,85.83-.21,2.33c-.23,1.42-.45,2.78-.66,4.12C1063.55,203.36,1063.82,201.34,1064,199.78Zm-3.16-94.18,0,.1c-1.39-2.58-2.46-4.79-3.32-6.68C1058.39,100.83,1059.42,103,1060.83,105.6ZM1041.91,47a43.57,43.57,0,0,0-9.4,2A43.57,43.57,0,0,1,1041.91,47Zm-3.27,43.73c-.42,0-.75-.28-1.29,0a1.21,1.21,0,0,1,.63-.11ZM1026.2,97.3c-2.08,2.26-4.38,3.06-8.44,4.65C1021.81,100.35,1024.14,99.54,1026.2,97.3Zm-15.13-26.17c-3.86,2.29-6.66,4.74-6.81,6.35C1004.4,75.87,1007.2,73.42,1011.07,71.13Zm-15.23,37.58c-1,1.61-2.81,2.56-11.41,12.05C993,111.34,994.86,110.3,995.84,108.71Zm.2,20.45a33,33,0,0,0-5.41,10A32.19,32.19,0,0,1,996,129.16ZM986.49,145c-.69,1.41-2.89,5.43-4.82,10.06A94.83,94.83,0,0,1,986.49,145Zm-9.6-36.46c-1.9,3.1-2.11,5-4.24,9.37C974.76,113.57,975,111.65,976.89,108.53Zm-5.17-52.35,1.14-1ZM964.59,268.4c-.19-.73-.36-1.47-.57-2.3C964.23,266.93,964.42,267.68,964.59,268.4ZM961.18,331c1.21.23,3.08,2.6,5.39,7.35L969,343.8C965,334.81,962.44,331.5,961.18,331Zm5.57,38,1.37.4a11.43,11.43,0,0,0,2.94.65A8.1,8.1,0,0,1,966.75,369.06Zm10.12,24.6a13.64,13.64,0,0,1-1.31-.67l1.31.65Zm.57-1.4c.29-.81.64-1.5,1.22-1.56C978.2,390.83,977.82,391.4,977.44,392.26Zm3.52-8.54c-1.48,4.73-8.78-6.37-6.24,8l-3.42-5.09c-6.19-19.48-2.5-13.09-.07-11.16.72,1.77,2.13,5.25,2.83,7,.61-2.34-.73-11.26,4.48-4.7l.43-.55,2.49,5.85Zm-7.56-14.4a3.23,3.23,0,0,0,.77-1A2.77,2.77,0,0,1,973.4,369.32Zm17.87,33.86c3,3.59,2.52,2.65,7.75,5.19C993.78,405.83,994.3,406.79,991.27,403.18Zm-3.19-15.75c1.21,2.11,2.82,4.38,5.76,8.51C991,392,989.36,389.69,988.08,387.43Zm64.19,81.24a3.22,3.22,0,0,1-.62,1.11,16.32,16.32,0,0,0-5.13,1.14c-1.26-1.76-2.6-3.49-4-5.22a6.76,6.76,0,0,0,2.81.21c2.51,0,2.5,1.18,1.88,2.56l2.57-1.54C1050.51,467.53,1055.88,465.48,1052.27,468.67Zm18.42-48.11-4.16,3.61c2.84-2.5,4.77-4.25,6.22-5.6Zm6-5.84c1.37-1.35,2.82-2.76,5.75-5.35C1080.53,411.15,1078.64,412.92,1076.71,414.72Zm3.62,46.27c1,.12,3.12-.52,9.82-4a22.32,22.32,0,0,1,1.62-2c-.56.66-1.12,1.31-1.62,2,3.83-2.28,7.6-4.5,11.36-6.73C1083.11,461.47,1081.15,461.75,1080.33,461Zm3.6-52.68c1.37-.89,2.09-1.07,2.55-1A4.24,4.24,0,0,0,1083.93,408.31Zm8.18,40.47.69.34c0,.55-.15,1.67-.18,2.22l-6.37,3.68a9.37,9.37,0,0,0-1.47-.27h.14Zm2.42,20.71-8.88,8.21,1.29-3.35c2.11-1.81,6.29-5.35,8.38-7.14C1095.13,467.77,1094.73,468.92,1094.53,469.49Zm2.82,5.38,2.89-2.79Zm6.56-16.25,1.13-1.15Zm1.79-1.81.13-.14.22-.22Zm1.41,8.33,3.87-4.26Zm5.21-15.87-.5.64.83-1.1Zm.65,9.41c1.62-.75,2.73-1.31,4-2l-1.19.69,1.89-.43A30.37,30.37,0,0,0,1113,458.68Zm3.58-15.51a18.47,18.47,0,0,1-2.09,3.21A29.77,29.77,0,0,0,1116.55,443.17Zm-1.41-1.17,1.85-2.64Zm-5.28,3.24c-1.8,4.07-1.91,6.81-3.47,10.69-11.75,9.41-5,4.17-18.64,13.58-.68.44-2,1.33-2.67,1.78.26-.5.81-1.48,1.09-2l2-2.3c2.85-3,3.5-4.46,3.86-5.71,3.11-2.12,6.21-4.23,9.25-6.32a96.82,96.82,0,0,0,5.53-9.3c1.31-1.32,3.9-3.92,5.21-5.22a127,127,0,0,0-12.53,7.61,52.47,52.47,0,0,1,8-5.16q2.32-1.26,4.58-2.45l6.93-5.08a9.25,9.25,0,0,1-1,2.45C1116,439.7,1111.91,443.37,1109.86,445.24Zm-8-39.09,4.18-3.25,2.48-1.72Zm15.31-21.86.12.27-.16.46A1.71,1.71,0,0,0,1117.17,384.29Zm10.89,56.59c-1.81.52-5.27,2.53-9.19,4.75C1122.39,443.59,1125.94,441.51,1128.06,440.88Zm-9.59,19.51,3.55-3.62,8-7.88ZM1129,375.08c5.77-5.82,7.71-8,9-9.33C1136.72,367,1134.62,369.37,1129,375.08Zm2.11,55a2.3,2.3,0,0,0-.2-1.25A2.3,2.3,0,0,1,1131.06,430.05Zm5.47,12.25c.93-1,1.75-1.95,2.41-2.79C1138.29,440.34,1137.49,441.27,1136.53,442.3Zm17.69-98.71a187.27,187.27,0,0,0,16.9-18.88A182.34,182.34,0,0,1,1154.22,343.59Zm35.1-39.36c2.06-3.64,4.52-7.84,8.26-13.3C1193.86,296.38,1191.38,300.59,1189.32,304.23Zm10.53,23.84a39,39,0,0,1,3.47-4.78A39.35,39.35,0,0,0,1199.85,328.07Zm7.47-52.89-1.08,1.53c.64-1,1.27-1.89,2-2.91ZM1221,249.8c2-5.21,5-8.41,9.67-13.53C1226,241.38,1223,244.63,1221,249.8Zm19.31-31.33a63.3,63.3,0,0,0,3.49-6.08A62.11,62.11,0,0,1,1240.29,218.47Zm6.57,47c3-5.32,5.5-9.54,4.24-10.77C1252.37,255.94,1249.89,260.13,1246.86,265.46Zm2.05-66.17,1-2C1249.59,198,1249.24,198.66,1248.91,199.29Zm7,17.27c1-2.11,3-4,11.83-17.27C1258.94,212.45,1256.91,214.47,1255.89,216.56Zm-.55-24.51c2.29-4,3.35-5.73,6.39-14.91C1258.64,186.47,1257.63,188.08,1255.34,192.05Zm10.06-20.79c.67-1.79,2.52-6.83,4.57-12.34C1268.48,163,1267.05,167.26,1265.4,171.26Zm7.58-50.12a59.09,59.09,0,0,1-1.13,17.89c-2.15,7.5-2.88,14.8-5.25,19.35-.39,1.48-1.16,4.46-1.54,5.92l2.92-2.56c-.67,1.85-2,5.53-2.73,7.37-.85.28-1.46-.85-3.2,2.82.43.15.68,1.11,1.11,1.5-.56-.28-.93-1.27-1.37-1.82-2.89,6.83-7.36,14.36-9.7,21.23a21.35,21.35,0,0,1-.95,2.07c-1.2,1.52-7.43,14.63-15.78,26.93-8,12.35-15.85,24.31-15.85,24.31l.79.79c-1.18,1.28-3.57,3.82-4.77,5.1L1209,261.9l2-.12-7.84,12.14-.31,1.31.88-4.08c-10.49,14.52-23.49,28.86-32.9,42.91a81.25,81.25,0,0,0-6.9,7.66c-.3.74-.9,2.22-1.18,2.95-4.86,6.19-5,9.24-10.93,14.89-1.43.56-2.31.52-2.68-.08-13.61,12.85-26.42,27.29-39.42,41l.85-.5A71.66,71.66,0,0,1,1098,391l-6,6c-1.8,1.16-3.67,2.34-5.54,3.53-.44,2.91-8.41,11-14.77,17.66-5.29,4.31-9.09,8.21-11.21,11.32l-1.09.92c.34.27,1,.79,1.35,1.07l-6.16,6.28,1.21,1.39-3.8,4.36,3.39-.52c.06,2.5-6.27,9-2.83,9.1l-5.81,4.62c0,1-1.47,2.72-4.07,4.14.06.34.17,1,.23,1.35a4.16,4.16,0,0,0-1.37,2.35c-4-4.89-8.46-9.72-12.46-14.65,0-.19-.07-.55-.11-.73-5.53-7.41-10.4-15.43-15.91-22.91-5.6-7-8.33-15.43-12.59-23.09a186.68,186.68,0,0,1-11-25.81c-2.36-6-4.74-12-6.86-17.41a128.26,128.26,0,0,0-4.8-13.63c-.83-4-1.16-7.43-2.14-11.66-3.23-11.23-4.64-23.15-6.46-34.19l-.12-.37c-2.27-42.64-4.2-18.81-2.35-60.38,0-5.16,1.32-14,1.89-21.57,1.12-7.49,2-13.73,2-13.73.55-4,1.58-7.79,2.23-11.73-.52,1.06-1.57,3.16-2.09,4.2-1.3,1.18-.27-4.46-.16-7.27,1.07-.23,1.87.75,2.55,2.14,1.49-9.76,8.09-28.19,11.73-35.74.26-1.32,1.25-3.7,1.65-4.94l-3,1.8c.74-1.49,2.23-4.46,3-6,.85-.12,1.39.94,3.26-2-.43-.19-.65-1-1-1.44.53.32.87,1.22,1.26,1.75,2.62-5.68,7-10.66,9.07-16.08a10,10,0,0,1,.87-1.5c.39-.53,2.23-2.94,4.77-6.26l4.15-5.52,4.58-5a78.78,78.78,0,0,1,9.14-7.56,20.81,20.81,0,0,1,4.1-2.61c-.11-.25-.32-.76-.42-1l3.64-.74a40.26,40.26,0,0,0,4.78-1.77c-.22-.4-.72-1-1-1.38a47.73,47.73,0,0,1,5-1l.32-.42a13.43,13.43,0,0,0-1,1.42c5.18-.1,7,1.25,12.05,5,.4,1.26,1.13,1.89,1.9,3.83l1.48.86c2,3.13,3.83,4.35,5.46,8.89a2,2,0,0,1-1.55,1.58,169.91,169.91,0,0,1,4.48,40.61l1.24-3.66-1,2.87a120.6,120.6,0,0,1-.48,13.55,59.63,59.63,0,0,1,.27,6.83c-.45,1.7-.91,3.43-1.36,5.19,1.76,1.93,2,11.17,2.28,18.71-1.1,5.43-1.33,9.85-.86,12.89l-.2,1.16,1.72,0-.37,7.25,1.81.24.41,5.25c.49-.6,1.5-1.79,2-2.38,1.9,1.66,1.74,9.81,4.28,7.8l-.92,7.11c.65.66.79,2.72.45,5.94l1.2.66c.5,3.58,2.27,3.75,4.45.45,1.5-1.86,2.41-1.07,3.14.18.07-.67.2-2.06.28-2.75,1-.14,3.25-4.67,3-.49a7,7,0,0,1,.58,3.38l.88.24c1.87,0,3.57.79,4.8,3.27-1.53,9.3,2.42,3.64.66,13.65,1.89.64,4,.52,5.64,2-.06,4.17,1.69,2.48,2.69,3.07.36-1.52,1.07-4.59,1.43-6.09l.79.93c2.32-8.91,2.29-9.49,3.61-13.41a19,19,0,0,1,2.51-.6l-1.72,9.65c1.26-.27,3.54-6.38,4.66-6,.75-2.79,1.5-5.55,2.25-8.3-.13,1.09-.06,1.81.37,1.66-.63,2.91-1.44,6-2.32,9.13-.5,3.22-1,6.5-1.49,9.65-.93,6.33-1.65,12.27-1.2,16.44l1.06.3c1.21-5.11,2-10.53,2.77-16s1.27-11.15,3.06-16.41l.55-.61L1119,234c1.31-5.14,3.61-10,5.27-15,1.81-4.76,3.36-9.54,5.7-13.95l7.22-13.17c1.07-1.72,2.78-5.81,6.11-10.45L1154.7,165c9.09-11.18,18.54-23.32,24-29.1,3.6-3,6.76-5.19,10.46-8.44,4.57-4.82,10.34-8.31,15.42-12.49l7.84-5.92,7.53-4.4.31-.25c9.56-4.87,15.27-7,18.88-8s5.53-1.94,7.1-2,3.58-1.16,6.12-.86c2.6.14,6.47,0,9.53,2.52,1.77.95,3.88,2.89,5.94,6.57,1.18,1.51,1.88,3.86,2.5,5.42a8.42,8.42,0,0,1,.91,2.78,37.07,37.07,0,0,0,1.07,4.49l.69,5c.17-1,.53-3,.7-4,.84-1.38,1.62,3.54,2.38,6C1275,122.77,1274.13,122.06,1273,121.14Zm3.52,89.53c1.37-3.31,1.69-5.52,3.52-10.23C1278.21,205.11,1277.88,207.34,1276.5,210.67Zm-4.35-126.84c7.19,9,8.22,15.69,9.92,20.38C1280.37,99.61,1279.41,92.94,1272.15,83.83Zm18.41,42.31c.29-1.23,1.48-2.36,1.47-8.69C1292,123.85,1290.84,125,1290.56,126.14Zm8.63-33.83a36.47,36.47,0,0,1,1.88,7A36.84,36.84,0,0,0,1299.19,92.31Zm2.19,151.23c1-2.55,1.67-4.56,2.28-6.54-.33,1.08-1,3.24-1.35,4.32Q1301.85,242.46,1301.38,243.54Zm1.94-3.77.69-1.08Zm26.6-58c.41-2.19.92-4.49,1.36-7C1330.86,177.2,1330.37,179.5,1329.92,181.77Zm2.37-15.53c.55-5.41,1.12-11,1.7-16.6Z"/><path class="cls-1" d="M655.72,245.34l0,2.61,2.61,0c3.65,0,5.46-1.82,5.41-5.28l0-2.89-2.6,0C658.05,239.82,656.24,241.68,655.72,245.34Z"/><path class="cls-1" d="M84.28,521.7v-3.2q0-5.1-6.38-6.06H75q-9.57,4.78-9.58,9.26v3.19l3.2,6.07Q84.27,527.12,84.28,521.7Z"/><path class="cls-1" d="M90.34,827.53q0,7.66,15.65,34.16,6.38,0,6.38-6.07-12.45-17.86-12.45-28.09Z"/><path class="cls-1" d="M1004.69,533.87V548h-2.26V536.41l2.26-11.87c-1.51,0-2.26-.84-2.26-2.54l2.26-16.39c0-1.69-.76-4.05-2.26-7.06h-2.54q-2.26,18.93-7.07,18.93H988.3q-1.41,0-11.87-9.61h-7.06q-7.07,1.69-7.06,18.93H957.5V512.68h-4.8q0,2-2.26,18.93h-2.27V526.8h-4.8l-2.26,23.74-4.8-2.54h-2.26q-5.37,68.38-11.87,68.38-1,1.29-4.68,24.13-2.81-15.1-16.21-36.56h4.81v-2.26L894,584.45q-43.82-37.58-43.8-41.26-53.42-42.95-53.41-51.14H794.2q0,15.82-14.7,19.49-5.93-9.89-9.6-9.88h-7.35q-7.35,1.69-7.34,19.49-4.82,0-4.81-14.41h-4.8l-2.55,17a2.25,2.25,0,0,1-2.54-2.55,67.19,67.19,0,0,1-17,2.55v2.54l9.6,9.61v9.89l-4.8-2.55H726.1q-5,62.16-10.6,69.62-5.36-13.21-16.35-29.56l5.56-.19-.08-2.61L689.88,561q-52.2-41.76-52.34-46-44-33-57.67-47.64,3.89-10.28,9-29.61-.21-14.16,11.58-38.9,11.67-33.71,20.44-87,57.78-185.55,56.9-247.11l-4.91.07.21,14.46-2.32,0-.17-11.85,2.14-12.17c-1.54,0-2.32-.84-2.34-2.57l2.07-16.8c0-1.73-.83-4.13-2.42-7.19l-2.6,0q-2,19.4-7,19.46l-4.62.07q-1.45,0-12.28-9.65l-7.23.1q-7.2,1.83-6.95,19.47l-4.91.07-.21-14.46-4.91.08q0,2-2,19.39l-2.31,0L615,58.35l-4.91.07-2,24.31-5-2.53-2.31,0q-4.5,70-11.14,70.12-1.71,2.34-11.11,72.71l2.74,9.5q-27.74,103-27.26,135.68a114.69,114.69,0,0,0,2.9,21.64l-4.6,21.74c3.28,0,4.94,1.57,5,4.85l.35,24,2.31,0q8-8.78,20.68-70.25l2.6,0,0,2.6q-4.59,23.19-4.54,26.37l4.95,2.53q-6.6,22.19-11.14,56.26l-1.89.07q.63,18.31-16.24,23.15-7.26-11.21-11.51-11.07l-8.5.29q-8.44,2.27-7.74,22.87-5.57.18-6.13-16.5l-5.56.19-2.27,19.73a2.61,2.61,0,0,1-3-2.84,78,78,0,0,1-19.52,3.61l.1,3,11.5,10.74.4,11.45-5.67-2.75-2.61.08q-3.75,82-11.27,82.26-2.21,2.39-11.5,84.89l3.34,11.35Q462.36,748,455.43,783.68L443,664l-5.34.55-.26-2.53a537.72,537.72,0,0,1-2.72-78.41l-5.34.55-1.18,40.75-2.53.26-.56-5.34q-2.08-20.24,6.58-65.45l-.29-2.81-3.93-13.23q2.53-.27,1.72-8.13-9.1-11-9.82-18-1.11-10.68-34.25-18-2.53.25-26.44,8.13-14.18,27.62-26.54,81.15c.37,3.57,2.33,5.16,5.9,4.79q.31,3.1-5.65,25l-2.81.29-.26-2.53,2.25-5.63-.29-2.81-5.34.55-71,150.81c-1.68.18-2.62-.67-2.82-2.54q-3.09.32-11.25,23-6.34,25.33-11.35,44.46-20.31,41.4-28.05,46-21.39,15.64-42.14,15.65h-3.19Q120,868.08,118.44,868.08l-6.07,3.19q-16.92-16.92-28.09-43.74,4.14-18.82,9.26-18.83l-3.2-15.65V783.8q0-25.21-2.87-59.38,10.22-37.35,15.64-46.61l-3.19-15.65q3.19,0,3.19,2.88,6.06,0,6.07-6.07L106,652.59q61.94-96.74,96.73-96.73H234l22,6.38q8.3,0,18.52-6.38,0,3.2,3.19,3.19,4.78,0,9.26-12.45c2.12,0,3.19,1.07,3.19,3.19,2.12,0,3.19-1.06,3.19-3.19q23.31,0,31.29-18.84H311.9q-6.07,0-6.07,9.58h-6.38L309,521.7c0-3.16-1.62-5.19-4.87-6.07a68.67,68.67,0,0,0,4.52-5.31q13.8-66.1,19.29-66.18,6.21-30.45,12.17-38.33,11.36-75,26.17-111.67l5.23,2.53,27.75-.4,0,2.32-10.11.14.07,5.2q64.31,9.21,73.55,9.07l2.6,0q-18.94,90.46-18.49,122l4.91-.07-.22-15.32,2.6,0,.18,12.72L452,445c1.73,0,2.61.74,2.63,2.28l-2.35,18q0,2.6,2.71,7.47,5.2-.07,5.13-5.27l-.21-15,10.11-.15,12.57,9.94,7.8-.11q7.5-1.85,7.23-20.34l4.91-.07.22,15,5.2-.07q0-2,2.31-20.27l2.61,0,.07,5.21,4.91-.08L520.08,416,525,418.5l2.6,0q3.3-73.47,14.28-73.63a148.65,148.65,0,0,1,1.94-25.47q10.21-14.3,10-25.29l-2.67-5.17a2.29,2.29,0,0,0,2.56-2.63q-.18-12.72-5.63-30.27Q577,153,576.52,116.26a129.08,129.08,0,0,0-2.93-22.8l4.88-22.9q-4.34.06-5.27-4.84l-.37-25.44-2.31,0Q562,49.7,548.74,114.05l-2.6,0,0-2.31q4.86-24.65,4.81-28.11l-5.24-2.53Q554.47,51,559.83,0l-2.6,0q-3.47,0-9.9,15.46Q538,71.14,530.2,71.24q-5.31,33.33-11.84,40.93-11.75,68.69-21.43,98.88-4.46,33-25,33.31l0-2.31a21,21,0,0,0-10.08,2.46q-10.16-2.17-76.16-9l-2.6,0q29.16-104.19,28.47-152.46l-5.2.08.22,15.31-2.6,0-.18-12.72L406.22,73c-1.74,0-2.61-.73-2.64-2.28l2.35-18c0-1.74-.93-4.22-2.71-7.48l-2.6,0q-2,20.27-7.23,20.34l-4.91.07q-1.46,0-12.86-9.94l-7.52.11q-7.77,1.84-7.51,20.34l-4.92.07-.21-15-5.2.08q-2.34,18-2.31,20.26l-2.32,0-.07-5.2-5.2.07L338.12,102l-4.95-2.53-2.6,0Q325.83,173,318.9,173.12q-1.44.6-9.33,55.92l-10.11.15.07,4.91q10.11-.15,10.19,5.06L279.34,237l.07,5.2,5.2-.07,0,2.6-7.81.11.08,4.91,12.71-.18a2.3,2.3,0,0,1-2.56,2.64q4.14,7.46,7.91,7.4l12.42-.18.08,5.21-5-2.54-32.95.47.07,4.92,7.52-.11,0,2.6L275,275.21q5.55,3.68,25.29,9.75l2.6,0q-11,45.87-16.27,75.33l-1,.16q-1.24-7.71-3.26-56.57l-2.86.46q-5.43.88-5.6,17.89l-2.86.46-.45-2.85,5.14-20.74-.46-2.86-5.42.88q-23.43,89-33,97Q220,411.11,201.41,414.1l-2.85.46q-34-5.94-35.47-5.7l-5,3.72q-17.56-12.68-31.41-35,1-17.43,5.56-18.17l-5.11-13.52-1.33-8.28q-3.63-22.54-11.13-52.66Q118.46,250.05,122,241l-5.11-13.52q2.85-.47,3.27,2.11,5.42-.87,4.55-6.3L120.91,218q41.42-95.38,72.52-100.4l28-4.51L242,115.65q7.43-1.19,15.63-8.37a2.55,2.55,0,0,0,3.31,2.39q4.29-.69,6.48-12.46a2.56,2.56,0,0,1,3.32,2.39,2.55,2.55,0,0,0,2.39-3.31Q294,92.93,298.39,74.94L287,76.78q-5.43.89-4,9.44l-5.71.92,6.31-15.36C283,68.54,280.8,67,276.91,67q1.8,11.13-6.48,12.46-50-37.62-60.26-36l-18.94,6-11.59-1.07a2.56,2.56,0,0,1-2.39,3.32l6.75,7.4q-39.66,6.39-72.52,45.95l-2.85.46,13.25-25-.46-2.85-5.71.92q-57.07,72.74-54.46,89-12.82,18.47-12,85.09-12,1.93-5.05,92.16,43,150.58,136.33,135.54,24.82-5.76,24.19-9.76,45-7.25,78.75-52.44.51,3,1.18,6.3l-4.88,22.91q5.2-.07,5.27,4.84l.36,25.43,2.61,0q8.23-9.37,21.49-73.73l2.61,0,0,2.32q-4.58,24.63-4.52,28.1l5,2.53q-7.77,26.57-12.61,69.22h-6.55v3.19c0,3.86,1.87,5.86,5.56,6-.09.9-.19,1.79-.28,2.7l2.31,0a3.27,3.27,0,0,0,1.61-.87q-.63,10.68-9.2,10.68Q245.5,478,234,478l-21.7,3.19L199.84,478q0,3.19-3.19,3.19l6.07,9.26q-44.39,0-87.15,37.35h-3.2l18.84-24.9v-3.19h-6.39q-75,69.29-75,87.47Q32.57,605,21.71,677.81,8.3,677.81,0,777.41,20.43,949.16,124.82,949.16q28.1-1.9,28.1-6.38,41.28,0,78.82-29.18a18.3,18.3,0,0,0-.4,5q.84,8.14,6.18,7.59l9.83-9.25,17.78-39.63.55,5.34,2.53-.26q20.28-20.85,38.32-74.42l72.23-7.48q10.68-1.1,14,31.22l5-3.36q4.34,41.88,23.83,46.39c3.56-.36,5.16-2.33,4.79-5.89q13.5-1.4,14.86,11.81l.85,8.15,5.34-.55-2.77-26.7,1.72-.18a168.51,168.51,0,0,0,3.25,21.25L445,908.32c3.7-.13,5.62,1.67,5.75,5.37l1,28.13,2.95-.1q9.12-10.46,22.38-82.64L480,859l.1,2.94q-4.64,27.36-4.49,31.27l5.65,2.43q-9.33,33.72-13.92,90.86l2.95-.1,8.21-8.8q12-60.35,24.95-93.86,17.51-62.49,16.63-88,5.64-45.39,29.53-46.21,8.71,5.93,8.8,8.22,94.46-3.24,143.91-76.5l-.82,5.52,2.55,9.89Q674.95,800.06,675,833.11a129.75,129.75,0,0,0,2.27,21.76l-4.81,22c3.2,0,4.81,1.6,4.81,4.8V906h2.54q8.19-8.75,21.75-70.64h2.55v2.55q-4.81,23.45-4.8,26.84l4.8,2.26q-9,28.82-14.69,78h2.54l7.35-7.35q12.13-51.7,24.3-80.25,17-53.4,17-75.44,6.21-39,26.85-39,7.33,5.37,7.34,7.35,92.89,0,138.15-80-1.19,7.92-2.54,17l2.54,9.33Q884.32,797,884.31,828.87a111.59,111.59,0,0,0,2.55,21.2l-4.8,21.19q4.8,0,4.8,4.8v23.45h2.26q7.9-8.47,21.19-68.38h2.54v2.55q-4.8,22.61-4.8,25.71l4.8,2.54q-8.76,28-14.41,75.45H901q5.1,0,16.4-40.13,0-13.83,11.86-37.86,11.87-32.77,21.2-84.77,59.05-180.57,59-240.75ZM398.48,240.49l0,2.6-17.63.26,0-2.6Zm-135.54,591q9.88-36.24,15.23-36.8Q274.38,821.24,262.94,831.51Zm57.62-200.84-.26-2.53c-.32-3,1.28-5,4.78-5.9l.26,2.53C325.71,628.33,324.11,630.3,320.56,630.67ZM348.5,741.4l-.26-2.53,23.89-2.47.26,2.53Zm35.72-19.89-3.61-34.85-5.34.55,2.24,21.65q-4.72,6.45-3.68,16.57l-8.15.84q-.71-6.74-11.52-7-5.34.56-4.5,8.7l-5.34.55L372,655.17q6.18-.63,12.58,44.72l2.21,21.36Zm190.68-244,2.07-.07q29.21,30.12,32.15,30l.1,2.95q-33.69-22.5-34.79-32.37A6.26,6.26,0,0,0,574.9,477.47Zm45.28,190.36q-25.47,21.51-55.39,27.45a2.61,2.61,0,0,0-3-2.85l-5.56.19-5.46,3.14q12.93-33.19,21.12-43l-.1-2.95-8.51.29c2.64-5.76,5.38-8.7,8.22-8.79l-3.43-14q-.33-9.81,9.52-56.65,45.06,24.66,63.65,51.2l-14.44-10.64.1,2.94a242.57,242.57,0,0,0,20.49,24.52l.29,8.5Q633.92,667.37,620.18,667.83ZM710,632.2c-.22-.39-.45-.78-.69-1.15l-.1-2.95,1.51-.05C710.49,629.35,710.25,630.73,710,632.2ZM799,509q24.3,26.85,26.85,26.85v2.54Q796.74,517.48,796.74,509Zm56,148.63q-12.44,17-24.3,17-22.6,17.8-48.6,22a2.25,2.25,0,0,0-2.55-2.54h-4.8l-4.8,2.54q12.14-28.26,19.5-36.45v-2.55h-7.35q3.66-7.33,7.35-7.34l-2.55-12.15q0-8.48,9.89-48.6,38.14,22.61,53.41,46.05L838,626v2.54a209.93,209.93,0,0,0,17,21.76Zm58.5-2.54h-2.27a18.4,18.4,0,0,0-2.54-9.61v-2.54h2.54c0,1.7.75,4.15,2.27,7.35Z"/><path class="cls-1" d="M256.06,737.62l-5.34.55c.2,1.88-.47,4.6-2,8.17l.29,2.81,5.34-.56c-.19-1.87.46-4.68,2-8.44Z"/><polygon class="cls-1" points="1018.16 608.15 1012.74 605.6 1009.24 613.89 1014.66 616.45 1018.16 608.15"/><path class="cls-1" d="M994.56,676.09l-.95,2.87q-1.61,5.74,2.86,8l2.88,1.27,1.27-2.87q2.24-5.42-3.19-8Z"/><polygon class="cls-1" points="1005.41 962.52 1010.83 964.75 1014.66 956.78 1009.24 954.23 1005.41 962.52"/></g></g></svg>