<svg xmlns="http://www.w3.org/2000/svg" viewBox="0 0 500 500"><defs><style>.cls-1{fill:#fff;}</style></defs><g id="Layer_2" data-name="Layer 2"><g id="Layer_1-2" data-name="Layer 1"><path class="cls-1" d="M472.4,0H27.6A27.59,27.59,0,0,0,0,27.6V472.42A27.59,27.59,0,0,0,27.6,500H267.08V306.38H201.92V230.92h65.16V175.27c0-64.58,39.44-99.75,97.07-99.75,27.6,0,51.31,2.06,58.22,3V146l-39.95,0c-31.34,0-37.4,14.9-37.4,36.73v48.19h74.73L410,306.4H345V500H472.44A27.58,27.58,0,0,0,500,472.4V27.6A27.59,27.59,0,0,0,472.4,0Z"/></g></g></svg>