<svg xmlns="http://www.w3.org/2000/svg" viewBox="0 0 487.12 500"><defs><style>.cls-1{fill:#fff;}</style></defs><g id="Layer_2" data-name="Layer 2"><g id="Layer_1-2" data-name="Layer 1"><g id="P6VKp1.tif"><path class="cls-1" d="M486.74,250.9c0,42.49-1.21,85,.32,127.45,1.85,51.43-37.2,104.55-91.64,117.86a114.34,114.34,0,0,1-26.73,3.43c-82.16.26-164.32-.39-246.47.36-53.8.48-105.28-39-118.38-93.83A130,130,0,0,1,.29,376.64C0,292.3.5,208,0,123.6-.33,66.47,40.5,12.7,102,1c5.46-1,11.2-.87,16.81-.87Q243.89,0,369,.09c63.51.13,117.45,54.15,117.7,117.73C486.88,162.18,486.74,206.54,486.74,250.9Zm-444.45-1h-.67q0,52.49,0,105c0,59.69,42.81,102.76,102.64,102.9q99.84.23,199.66,0c58.3-.13,102.06-41.53,103-100,1.17-71.84.88-143.73.11-215.58-.64-60.9-49.3-100-96-100.21-71.55-.36-143.11-.56-214.66.09C88.76,42.58,45.3,82.51,42.74,130,40.58,169.88,42.29,210,42.29,249.94Z"/><path d="M411.72,119.64a39.07,39.07,0,0,0-39.43-39c-21.12.14-38.37,17.62-38.51,39s17.7,39.7,39,39.71S411.76,141.18,411.72,119.64Z"/><path class="cls-1" d="M244.36,122.77c68.65,0,126,57.8,126,127,0,68.62-57.31,127.26-125.12,127-69.18-.27-126.88-53.08-127.2-126.57C117.75,178.08,173.89,123.9,244.36,122.77Zm-.84,35c-49.54.32-88.8,41-88.82,92.08,0,51.36,40,92.17,90,91.85s89.36-41.5,89-93C333.3,198,293.08,157.46,243.52,157.78Z"/><path class="cls-1" d="M411.72,119.64c0,21.54-17.8,39.7-39,39.7s-39.11-18.19-39-39.71,17.39-38.88,38.51-39A39.07,39.07,0,0,1,411.72,119.64Z"/></g></g></g></svg>