<svg xmlns="http://www.w3.org/2000/svg" viewBox="0 0 500 219.79"><defs><style>.cls-1{fill:#fff;}</style></defs><g id="Layer_2" data-name="Layer 2"><g id="Layer_1-2" data-name="Layer 1"><path class="cls-1" d="M24.15,208.06A2.18,2.18,0,0,0,26.21,206l5.61-44.45-5.6-45.46a2.09,2.09,0,0,0-4.17,0l-4.9,45.46L22.05,206A2.22,2.22,0,0,0,24.15,208.06Z"/><path class="cls-1" d="M5.66,191.15a2.07,2.07,0,0,0,2-2L12,161.56,7.65,133.42a2.1,2.1,0,0,0-2-2,2.11,2.11,0,0,0-2,2L0,161.56l3.63,27.62A2.08,2.08,0,0,0,5.66,191.15Z"/><path class="cls-1" d="M46.27,107.64a2.5,2.5,0,1,0-5,0L36.6,161.56l4.68,52a2.5,2.5,0,0,0,5,0l5.3-52Z"/><path class="cls-1" d="M63.59,218.09a3.05,3.05,0,0,0,2.93-2.92l5-53.59-5-55.43a3,3,0,0,0-2.93-2.92,3,3,0,0,0-2.93,2.93l-4.43,55.42,4.43,53.59A3,3,0,0,0,63.59,218.09Z"/><path class="cls-1" d="M83.55,219a3.46,3.46,0,0,0,3.37-3.35h0l4.72-54L86.9,110.15a3.36,3.36,0,0,0-6.71,0L76,161.58l4.17,54A3.4,3.4,0,0,0,83.55,219Z"/><path class="cls-1" d="M111.89,161.59,107.46,78a3.79,3.79,0,1,0-7.58,0L96,161.59l3.92,54a3.79,3.79,0,1,0,7.58,0v0Z"/><path class="cls-1" d="M124,219.51a4.31,4.31,0,0,0,4.19-4.22v0l4.13-53.72L128.17,58.85a4.22,4.22,0,1,0-8.43,0l-3.65,102.76,3.66,53.7A4.3,4.3,0,0,0,124,219.51Z"/><path class="cls-1" d="M144.41,45.62a4.76,4.76,0,0,0-4.65,4.67l-3.38,111.33,3.38,53.14a4.65,4.65,0,1,0,9.29,0v0l3.84-53.16L149.05,50.29A4.73,4.73,0,0,0,144.41,45.62Z"/><path class="cls-1" d="M165,219.51a5.13,5.13,0,0,0,5.06-5.1v0l3.55-52.83L170.08,46.55A5.14,5.14,0,0,0,165,41.46,5.07,5.07,0,0,0,160,46.55l-3.2,115.07,3.2,52.83A5.06,5.06,0,0,0,165,219.51Z"/><path class="cls-1" d="M185.8,219.45a5.57,5.57,0,0,0,5.48-5.53V214l3.27-52.34L191.28,49.48a5.5,5.5,0,1,0-11,0l-2.87,112.15L180.31,214A5.54,5.54,0,0,0,185.8,219.45Z"/><path class="cls-1" d="M215.6,161.63l-3-108.06a5.93,5.93,0,1,0-11.85,0l-2.65,108,2.65,52a5.93,5.93,0,1,0,11.85,0v0Z"/><path class="cls-1" d="M227.8,219.65a6.45,6.45,0,0,0,6.35-6.38v0l2.68-51.64L234.15,33.07a6.35,6.35,0,1,0-12.69,0l-2.39,128.52,2.39,51.69A6.45,6.45,0,0,0,227.8,219.65Z"/><path class="cls-1" d="M248.82,14.59A6.89,6.89,0,0,0,242,21.43l-2.78,140.25,2.8,50.87a6.76,6.76,0,1,0,13.51-.06v.06l3-50.87-3-140.25A6.84,6.84,0,0,0,248.82,14.59Z"/><path class="cls-1" d="M268,219.7l170.46.09c34,0,61.51-27.87,61.51-62.26s-27.53-62.25-61.51-62.25a60.57,60.57,0,0,0-23.79,4.85C409.83,44,363.34,0,306.63,0a108.62,108.62,0,0,0-39.32,7.45c-4.65,1.82-5.89,3.69-5.93,7.32V212.33A7.52,7.52,0,0,0,268,219.7Z"/></g></g></svg>