<svg xmlns="http://www.w3.org/2000/svg" viewBox="0 0 500 499.99"><defs><style>.cls-1{fill:#fff;}</style></defs><g id="Layer_2" data-name="Layer 2"><g id="Layer_1-2" data-name="Layer 1"><path class="cls-1" d="M250,0C111.93,0,0,111.93,0,250S111.93,500,250,500,500,388.07,500,250,388.08,0,250,0ZM364.65,360.57a15.58,15.58,0,0,1-21.44,5.16c-58.7-35.85-132.59-44-219.61-24.09a15.59,15.59,0,0,1-6.93-30.39c95.23-21.77,176.91-12.39,242.81,27.88A15.59,15.59,0,0,1,364.65,360.57Zm30.6-68.08a19.49,19.49,0,0,1-26.81,6.43c-67.2-41.31-169.64-53.28-249.12-29.15A19.49,19.49,0,1,1,108,232.47c90.8-27.54,203.67-14.2,280.84,33.22a19.5,19.5,0,0,1,6.42,26.8Zm2.62-70.89c-80.57-47.86-213.51-52.26-290.43-28.91a23.38,23.38,0,1,1-13.58-44.75c88.31-26.81,235.11-21.63,327.88,33.44a23.38,23.38,0,1,1-23.86,40.22Z"/></g></g></svg>