<svg xmlns="http://www.w3.org/2000/svg" viewBox="0 0 1746.59 504.02"><defs><style>.cls-1{fill:#fff;}</style></defs><title>Asset 2</title><g id="Layer_2" data-name="Layer 2"><g id="Layer_1-2" data-name="Layer 1"><g id="uGUBmq"><path class="cls-1" d="M0,316.4c1-5.55,1.84-11.12,2.93-16.64C8.45,271.87,21.72,247.9,40,226.51a189,189,0,0,1,32.13-29.75c2-1.43,1.93-2.7,1-4.64-3-6.31-7.71-11.2-13.18-15.38q-6.77-5.17-13.7-10.12c-2.28-1.64-2.35-2.63.32-4,10.9-5.79,22.64-8.18,34.8-8.85a87.54,87.54,0,0,1,20.37,1.11c14.55,2.61,25.61,10.44,33.66,22.6,1.72,2.6,3.55,3.36,6.57,3.35,25.47-.05,49.23,6,68.75,23,8,6.91,16.1,10.28,26.33,11.67,32.61,4.44,65.09,9.78,97.64,14.64,9.82,1.46,19.7,2.47,29.56,3.69,2.44.3,4.73.89,6.7,3.57-6.48,1.31-12.62,2.63-18.78,3.78-17.44,3.25-34.89,6.41-52.33,9.65-19.95,3.7-39.89,7.4-59.81,11.23-1.69.32-4.46-.43-4.72,2.48-.21,2.42,2,3.2,3.67,4.19,14.6,8.39,26.85,19,33.76,34.88a26.41,26.41,0,0,1,1.28,3.15c1.12,3.89.1,4.94-3.81,3.87-11.55-3.17-23.24-5.3-35.26-5.33a75.34,75.34,0,0,0-41.54,12.08,8.44,8.44,0,0,0-4.17,6.82c-1.38,11.4-4.48,22.24-11.39,31.68-.34.46-.67.92-1,1.35-3.84,4.59-4.62,4.46-7.22-.76-3.16-6.35-6.09-12.82-10-18.82-4.88-7.58-11.71-11.09-20.6-9.92-21.23,2.81-41.55-1.13-61.53-7.87a56.06,56.06,0,0,1-7.23-2.51c-3-1.49-5.09-.77-6.92,1.76-14.17,19.51-20.23,41-15.81,65a14.42,14.42,0,0,0,2.92,6.1c2.54,3.35,4.22,3.17,6-.75C61,379.27,68.24,372,78.88,368.59a59.46,59.46,0,0,1,22.33-2.44c11,.77,22.05,1.92,33.08,3,1.48.14,3.42-.14,3.87,1.85.37,1.64-1.15,2.42-2.22,3.33-17.79,15-35.53,30.11-53.38,45.06C76,424.8,72.59,432,70.17,439.81Q60.91,469.92,51.65,500c-.41,1.34-.89,2.65-1.34,4H47.76c.08-3.13-1.55-5.73-2.86-8.34-4.2-8.37-8.64-16.62-12.91-25-5.93-11.59-9.73-23.57-7.32-36.87a79.37,79.37,0,0,1,6-19,5.67,5.67,0,0,0-.49-6.3c-3-4.16-5.75-8.45-8.57-12.71C12.4,381.93,5.58,367,2.49,350.61,1.58,345.76.83,340.88,0,336Q0,326.21,0,316.4Z"/><path class="cls-1" d="M48.61,0c5,2.25,10.22,3.93,13.63,8.79,6,8.5,6.5,17.57,2.41,26.67C60.81,44,53.07,47.24,44.15,47.58c-7.1.27-14.21.17-21.31,0-2.6-.05-3.45.76-3.41,3.38.14,8.67,0,17.34.1,26,0,2.78-.49,4-3.68,4-8.08-.06-8.08.1-8.09-8.09q0-36.45-.09-72.9ZM19.48,24c0,3.83,0,7.65,0,11.48,0,1.42-.2,3,2,2.91,7.5-.16,15.07.73,22.5-.44,8.83-1.39,12.22-6.55,11.54-16.24C55,14.72,50,10.24,41.9,10c-6.37-.18-12.76,0-19.13-.08-2.24,0-3.44.45-3.32,3C19.61,16.63,19.49,20.32,19.48,24Z"/><path class="cls-1" d="M489.52,0V29.39c1.67.34,2.09-1.19,2.91-2A23,23,0,0,1,527.63,31c7.45,11.18,7.39,30.6-.13,41.74C519.74,84.28,501.8,85.91,492,76a17.09,17.09,0,0,1-1.64-2.32,2.44,2.44,0,0,0-.93,2.78c.49,3.48-.74,4.74-4.4,4.56-6.83-.34-5.82.5-5.82-6q0-37.48,0-75ZM522.3,52c-.13-2.41-.14-4.83-.43-7.22-1-8.11-6.22-14.11-12.92-14.93-8.41-1-15.1,2.79-18.08,10.94-3.33,9.1-3.2,18.15,2.41,26.46a15.26,15.26,0,0,0,26-.85C522,61.9,522.23,57,522.3,52Z"/><path class="cls-1" d="M436.65,0c0,25.43-.06,50.85.12,76.28,0,3.76-.91,5-4.71,4.73-3.22-.24-6.53.37-5.58-4.63a10.53,10.53,0,0,0,0-2c-.81-.5-1.18,0-1.48.41-8.16,11.71-30.46,10.19-38.47-4.92-6.8-12.83-5-32.27,4.54-41.87s23.89-9.56,33.35.17c.46.47.77,1.23,2,1V0ZM393.05,52.4c.31,2.29.53,5.42,1.2,8.45,1.62,7.39,7,12.41,13.83,13.16a16.54,16.54,0,0,0,16.63-10.2,29.41,29.41,0,0,0-.64-25.13c-3.33-6.76-9.09-9.5-16.45-8.88-7,.59-10.78,5.08-12.89,11.3C393.59,44.49,393.36,48,393.05,52.4Z"/><path class="cls-1" d="M1746.59,313.84c-2.34,3.81-3.17,8.32-6,12-8.44,10.91-22.78,15.33-35.38,10.59-13.43-5.05-21-17.19-20.05-32.18.79-12.61,10.69-24,23.52-27a31,31,0,0,1,33.87,14.66,92.92,92.92,0,0,1,4,9.19Zm-7.59-6.38c0-13.64-10.15-24.26-23.23-24.25-13.28,0-22.83,10.35-23.27,24.17a23.34,23.34,0,0,0,23,24C1728.5,331.86,1739,321,1739,307.46Z"/><path class="cls-1" d="M1219.4,471.19c0,3.95-.09,7.06,0,10.17.08,2.13-.58,3.07-2.88,3-8.24-.1-16.48-.12-24.72,0-2.54,0-3.3-1-3-3.28a14.63,14.63,0,0,0,0-1.7q0-99.51-.1-199c0-4.17,1.15-5.3,5.22-5.1,6.94.34,13.92.28,20.87,0,3.48-.13,4.61.81,4.58,4.44-.17,20.88-.1,41.76,0,62.64,0,1.59-.9,3.75.9,4.64,1.43.71,2.88-.81,4.15-1.64,24.18-15.74,49.54-17.08,75.37-5.12,20.26,9.39,33,25.78,38.42,47.3,7.63,30.1,2.29,57.51-20.46,79.62-23.29,22.64-63.86,29-93.95,6.57C1222.66,473,1221.39,472.38,1219.4,471.19Zm45.45-13.25c10.36-.19,21.21-3.23,30-11.61,12.82-12.17,16.49-27.45,14.15-44.34-2.59-18.74-12.5-32.36-30.91-37.91s-35.27-1.72-48.54,12.84c-10,10.94-12.38,24.26-11.14,38.82C1220.54,440.29,1238.79,457.79,1264.86,457.94Z"/><path class="cls-1" d="M586.72,349.49c0-4.14.09-7.22,0-10.29-.09-2.23.43-3.4,3-3.36,8.24.12,16.48.09,24.72,0,2.16,0,3.22.69,3,2.94-.07.7,0,1.42,0,2.13q0,69.27.08,138.53c0,3.8-.81,5.2-4.86,5-7.37-.34-14.77-.2-22.16,0-2.73.06-3.74-.66-3.71-3.55s1.56-7.28-.82-8.68c-1.76-1-4.81,2.67-7.32,4.21-43.73,26.76-100.06,3.42-111.55-46.71-6-26-1.63-50.44,15.84-71.32,18.81-22.48,43.41-29.15,71.69-24.37C566.36,336,576.57,341.38,586.72,349.49ZM587.79,409a44.36,44.36,0,0,0-1-10.54c-3.84-17.16-13.61-29.49-30.61-34.49-17.23-5.06-33.26-1.9-46.47,11-10.43,10.19-14,23.08-13.4,37.29C497.91,448.55,529,465,558.64,455,576.89,448.77,587.78,431.5,587.79,409Z"/><path class="cls-1" d="M1106.9,422.09c-17.19,0-34.38.1-51.57-.08-3.79,0-4.23,1.25-3.45,4.49,4.57,19.08,17.59,28.76,36,32.38,15.78,3.11,29.71-1.81,42.66-10.41a106.27,106.27,0,0,0,8.51-6.4c1.69-1.39,2.78-1.31,4.15.46q6.77,8.76,13.8,17.31c1.66,2-.06,2.78-1,3.77C1143.8,475.77,1129.2,483,1112.31,486c-20.54,3.57-40.23,1.86-58.31-9.36-22.09-13.7-33.06-34-34.85-59.65-1.18-16.92,1-33.23,10-48,12.8-20.92,31-33.31,55.87-35.61,22.77-2.1,42.51,3.79,58.17,20.88,12.85,14,19.83,30.59,20,49.78,0,4.69-.25,9.38-.05,14.06.13,3.26-1.14,4.09-4.24,4.07C1141.56,422,1124.23,422.09,1106.9,422.09Zm-15.29-27.14c11.79,0,23.58-.13,35.37.08,3.69.06,4.21-1.1,3.54-4.46a32.74,32.74,0,0,0-10.09-18.31c-7.21-6.59-16-9.27-25.55-10.47-18.76-2.35-37.86,10.83-42,29-.76,3.36,0,4.22,3.36,4.18C1068,394.86,1079.82,394.95,1091.61,394.95Z"/><path class="cls-1" d="M940.53,336.88q-12.44,12.82-24.88,25.64c-13.23,13.69-26.37,27.46-39.7,41-2.13,2.17-1.48,3.31.14,5.15q25.43,29,50.75,58.07l14.51,16.62c-.83,1.58-2.12,1-3.12,1-10.66.05-21.32,0-32,.07a6.28,6.28,0,0,1-5.38-2.53c-16.88-19.57-33.93-39-50.83-58.53-1.94-2.24-4.2-2-6.57-2-9.57,0-9.57,0-9.57,9.5,0,16.49-.08,33,.07,49.46,0,3.15-.77,4.2-4,4.09-7.38-.24-14.79-.28-22.17,0-3.86.15-5.09-.91-5.06-4.92.19-21.89.09-43.78.09-65.67q0-66.31,0-132.61c0-5.9,0-5.9,6.07-5.9,6.68,0,13.37.19,20-.08,3.56-.14,4.54,1,4.52,4.51-.13,32-.08,64-.08,95.94,0,4.41.08,8.81,0,13.22-.06,2.36.79,3.37,3.22,3.24a54.57,54.57,0,0,1,7.67,0c3,.25,5-.88,7-3,16-16.93,32.16-33.71,48.18-50.63a8.23,8.23,0,0,1,6.67-2.81c11.33.14,22.66.06,34,.06Z"/><path class="cls-1" d="M1514.79,410.19c.9,41-30.8,77.11-77.94,77.32-45.4.2-78.64-32.75-78.88-77.9-.23-43.82,33.55-77,78.3-77C1482.22,332.6,1515.61,367,1514.79,410.19Zm-31.64,2c.21-33.21-21.28-51.06-47.83-50.5-27.14.58-46.58,21.62-46,49.7.61,27.51,21.05,47,48.74,46.43C1463.92,457.31,1483.77,437.21,1483.16,412.2Z"/><path class="cls-1" d="M353.78,404.49c0-11.93-.19-23.87.11-35.8.1-4.12-1.31-5-5.07-4.85-7.38.27-14.78,0-22.17.13-2.89.06-4.07-.71-4-3.8.19-7,.22-13.93,0-20.89-.11-3.38,1.25-4,4.27-4,7.53.18,15.07-.07,22.59.12,3,.07,3.87-.89,3.85-3.87-.12-18,0-36.1-.13-54.15,0-3.29.8-4.52,4.29-4.41q11.5.37,23,0c3.36-.11,4,1.11,4,4.17-.13,17.91,0,35.81-.14,53.72,0,3.51.87,4.58,4.47,4.54,17.19-.18,34.39,0,51.59-.18,3.89-.05,4.82,1.12,4.65,4.8-.3,6.67-.24,13.36-.05,20,.09,3.07-1.06,3.86-4,3.84-17.34-.11-34.68,0-52-.13-3.51,0-4.58.89-4.55,4.49.17,21.17.08,42.35.09,63.53,0,1.28,0,2.56.13,3.83,1.57,16.7,13.05,25.2,29.65,22a54.21,54.21,0,0,0,22.16-9.43c2-1.48,2.94-1.27,4.2.84,3.69,6.23,7.48,12.41,11.47,18.45,1.41,2.13.76,3.11-.9,4.47-10.91,8.95-23.59,13.26-37.42,15s-26.9.06-38.72-7.88c-13.65-9.17-20.44-22.24-21-38.42-.42-12.06-.08-24.15-.08-36.22Z"/><path class="cls-1" d="M1673.51,484.47c-12.52,0-24.28,0-36,0-2.07,0-2.88-1.65-3.91-2.94q-18-22.43-35.93-44.91c-.18-.22-.35-.44-.54-.66-4.26-4.74-3-5.28-7.29.1q-18.13,22.59-36,45.4a7.16,7.16,0,0,1-6.4,3.16c-10.5-.18-21-.07-32-.07,1.37-3.92,4.17-6.39,6.35-9.19q25.31-32.4,50.86-64.61c1.68-2.11,1.14-3.16-.31-5q-27.11-33.69-54-67.51c-.35-.43-.62-.93-.92-1.38.79-1.43,2.07-.84,3.09-.85,10.09,0,20.18.06,30.27-.09a6.86,6.86,0,0,1,6.11,2.93c11.54,14.59,23.29,29,34.73,43.69,2.55,3.26,3.68,2.94,6.07-.1,11.41-14.52,23.09-28.82,34.57-43.27a8,8,0,0,1,7.16-3.48c9.37.24,18.76.07,28.14.11,1,0,2.49-.59,3,.77s-.76,2-1.44,2.87c-17.42,21.71-34.77,43.48-52.39,65-2.61,3.19-2,5.05.18,7.86q27.69,34.86,55.17,69.87C1672.42,482.69,1672.68,483.18,1673.51,484.47Z"/><path class="cls-1" d="M718.73,332.58c19.4.6,37.31,5.34,51.93,19,7.37,6.89,7.31,7,.4,14.27-3.72,3.91-7.55,7.72-11.22,11.68-1.54,1.66-2.43,2-4.32.15-5.85-5.67-12.4-10.48-20.23-13.09-28.28-9.45-57,5.31-61.58,38.86A49.78,49.78,0,0,0,679,434c9.94,18.83,28.81,27.32,49.82,22.93a53.54,53.54,0,0,0,26.91-14.67c1.93-1.89,2.81-1.88,4.56.12q7.16,8.17,14.77,15.93c1.86,1.9,1.62,3.09.08,4.94-10.46,12.63-24.18,19.65-40,22.54-26.11,4.78-49.76-.65-69.59-18.91-13-12-20-27.43-22.27-44.87-2.59-19.75.33-38.52,11.27-55.54C666.68,347.68,684,336.94,706,333.51A80.09,80.09,0,0,1,718.73,332.58Z"/><path class="cls-1" d="M993.74,380c0,33.24-.05,66.48.08,99.72,0,3.61-.7,5-4.63,4.82-6.94-.34-13.93-.35-20.87,0-3.94.2-4.62-1.19-4.61-4.81q.17-86.3.08-172.6c0-9.09.14-18.19-.07-27.27-.08-3.39.66-4.79,4.39-4.63,7.09.3,14.21.29,21.3,0,3.7-.15,4.42,1.2,4.41,4.61C993.7,313.19,993.74,346.58,993.74,380Z"/><path class="cls-1" d="M190.62,68.17c3.64-13.79,8.57-26.94,12.09-40.48,1.17-4.5,3-5.85,7.48-5.5,5.18.42,5.09.07,3.52,4.85-5.44,16.58-11,33.11-16,49.81C196,82.29,192.33,80.5,189,81c-3.66.49-3.71-2.18-4.31-4.46-3.42-12.88-7.19-25.68-9.92-38.74a10.75,10.75,0,0,0-1.26-3.25c-2.62,12.62-6.51,24.85-9.74,37.26-.25,1-.52,1.92-.79,2.87-1.83,6.36-1.84,6.16-8.44,6.37-3.11.1-4.14-1.22-5-3.86q-8-25.8-16.32-51.51c-.84-2.61-.53-3.42,2.43-3.41,7.51,0,7.61-.16,9.65,7.08,3.53,12.56,7.57,25,10,37.83.13.71.27,1.4,1.18,1.65q5.43-20.5,10.86-41c1.35-5.08,5.59-7.21,10.39-5.4,1.57.59,1.52,2,1.8,3.12,3.19,12.8,7.22,25.37,9.88,38.31C189.73,65.28,190.22,66.72,190.62,68.17Z"/><path class="cls-1" d="M251.36,53.85c-6.4,0-12.79.07-19.19,0-2.28,0-3,.71-2.7,3,1.49,12.09,11,19.11,22.61,16.53a13.27,13.27,0,0,0,9.09-6.45c1.42-2.46,7.43-4.09,10-2.83,1.52.74.86,1.91.5,2.91A20.86,20.86,0,0,1,258,80.58c-23.58,7.3-41.11-8.54-39.15-32.12.83-10,4.91-18.32,13.75-23.76A26.31,26.31,0,0,1,271.91,40a53.63,53.63,0,0,1,1.87,10c.26,2.92-.54,4-3.66,3.91C263.88,53.68,257.62,53.84,251.36,53.85ZM246,46.77c4.69,0,9.37,0,14.06,0,1.56,0,2.67-.12,2.69-2.24.05-5.82-4.55-12.64-10.06-14.56C242.28,26.37,233,31.82,230,43.06c-.72,2.72-.51,3.93,2.72,3.76C237.14,46.6,241.56,46.77,246,46.77Z"/><path class="cls-1" d="M353,53.85c-6.39,0-12.78,0-19.16,0-2,0-3.35.25-2.93,2.78,2,12.23,10.23,19.12,22,16.85A13.84,13.84,0,0,0,363.15,66c.91-1.75,8.6-3.07,9.94-1.71,1.14,1.15.19,2.38-.27,3.51-4,10-14.86,15.59-26.88,14.51-17.93-1.61-27.22-16.4-25.66-33.8,1.28-14.31,9.81-24.54,21.46-27,15.68-3.34,29,5.52,32.5,21.65,2.33,10.71,2.33,10.71-8.45,10.71Zm-5.49-7.08c4.69,0,9.37,0,14.05,0,1.68,0,2.58-.37,2.57-2.37,0-5.78-4.71-12.63-10.17-14.48-10.75-3.65-21.41,3.15-22.85,14.44-.27,2.15.68,2.41,2.34,2.4C338.16,46.75,342.84,46.77,347.53,46.77Z"/><path class="cls-1" d="M128.77,56c-.11,6.07-3.23,15-11.73,21.14C108.26,83.55,98.41,84.06,88.7,80,78,75.5,73.07,66.27,71.9,55.16,70.14,38.49,80,24,94.52,21.38,114,17.87,128.82,31.13,128.77,56ZM82.45,51.68c-.09,5.52,1,10.69,4.22,15.33A15.79,15.79,0,0,0,101,73.95c6.32-.26,11.43-3.18,14.32-9.14a29.48,29.48,0,0,0,.46-25.52,15.55,15.55,0,0,0-14.14-10c-6.49-.4-12,1.87-15.52,7.75A26.41,26.41,0,0,0,82.45,51.68Z"/><path class="cls-1" d="M564.11,70c4-13.68,8.77-25.83,13.12-38.1.33-.94.62-1.89.95-2.82,2.58-7.25,2.57-7.13,10.12-6.88,2.92.09,2.93,1.12,2,3.37-2.83,7.12-5.48,14.3-8.27,21.44-5.27,13.48-10.6,26.93-15.88,40.4-4.49,11.45-10.34,14.83-21.93,13.23-5.29-.73-3.14-4.49-3.35-7.15-.3-3.74,2.64-2.07,4.2-1.91,8.47.83,15.25-8.44,12-16.52-6.51-16.19-12.94-32.41-19.54-48.55-1.3-3.17-1.29-4.44,2.74-4.32,7.21.22,7.19,0,9.62,7.06C554.49,42.5,560.07,55.37,564.11,70Z"/><path class="cls-1" d="M295,30.75c1.88-.47,2.45-2.25,3.59-3.4a18.48,18.48,0,0,1,13.68-5.87c2.48,0,3.71,1,3.46,3.58a25.22,25.22,0,0,0,0,3.83c.11,1.88-.38,2.67-2.59,2.72-12.36.26-18.3,6.49-18.31,18.92,0,8.81-.14,17.63.07,26.43.08,3.24-.93,4.44-4.1,4a14.34,14.34,0,0,0-3.41,0c-2.33.23-3.26-.59-3.25-3.09q.13-26.22,0-52.44c0-2.44.81-3.39,3.2-3.13a12.14,12.14,0,0,0,3,0c3.09-.44,4.5.61,4.12,3.93C294.23,27.64,293.84,29.29,295,30.75Z"/><path class="cls-1" d="M1699.69,306.78c-.14,7.79,4.08,14,11.1,16.41,6.76,2.29,13.86.23,17.84-5.4.92-1.3,3.29-3.38.89-4.5-2-.93-4.58-4-7.4-.42-3.32,4.18-8.11,4.44-11.46,1s-3.21-9.65,0-12.88c3.37-3.41,7.72-3,11.37,1.21,2.77,3.18,5.36.21,7.5-.68s0-3-.74-4.21c-3.49-5.48-10.61-7.88-17.3-6A16,16,0,0,0,1699.69,306.78Z"/><path class="cls-1" d="M1699.69,306.78a16,16,0,0,1,11.78-15.44c6.68-1.86,13.8.53,17.3,6,.79,1.24,2.89,3.32.74,4.21s-4.73,3.86-7.5.68c-3.64-4.18-8-4.62-11.37-1.21-3.18,3.23-3.17,9.64,0,12.88s8.13,3.13,11.46-1c2.83-3.56,5.41-.51,7.4.42,2.4,1.12,0,3.2-.89,4.5-4,5.63-11.08,7.69-17.84,5.4C1703.77,320.8,1699.55,314.57,1699.69,306.78Z"/></g></g></g></svg>