<svg xmlns="http://www.w3.org/2000/svg" viewBox="0 0 500 585.84"><defs><style>.cls-1{fill:#fff;}</style></defs><g id="Layer_2" data-name="Layer 2"><g id="Layer_1-2" data-name="Layer 1"><g id="sND3Fg.tif"><path class="cls-1" d="M356.65,177.77v10.9q0,109.86,0,219.73c-.1,78.59-52.31,149.87-128.1,170.28C131.16,604.89,42.18,557.11,11.14,469c-34.69-98.5,14.29-197,110.12-231A159.64,159.64,0,0,1,181,228.9c7.33.27,9.74,3.17,9.66,10.24-.26,23.37-.36,46.75,0,70.12.14,8.22-2.46,10.59-10.82,10.31-55.31-1.83-100.44,47.08-88.21,106.74,7.38,36,30.93,59.76,67.16,67.52,34.42,7.37,64.86-2.5,89.12-28.6,15-16.16,21.94-35.36,21.94-57.75q.06-195.41.87-390.81c0-16.52,0-16.52,16.93-16.52,20.26,0,40.52.28,60.77-.14,7.13-.15,9.92,2.54,11,9.29,9.26,56.52,41.19,95.63,93.14,118.31,11.73,5.12,24.91,7.23,37.63,9.65,6.61,1.26,9.8,3.08,9.7,10.47-.35,27.42-.49,54.86.07,82.27.17,8.67-4.34,9.83-10.79,9.94-32.28.54-62.67-6.76-89.19-25.33C384.89,204,371.67,190.69,356.65,177.77Z"/></g></g></g></svg>