<svg xmlns="http://www.w3.org/2000/svg" viewBox="0 0 500 416.89"><defs><style>.cls-1{fill:#fff;}</style></defs><g id="Layer_2" data-name="Layer 2"><g id="Layer_1-2" data-name="Layer 1"><g id="CtsTbr.tif"><path d="M487.45,9.12c-2.75,1.13-4.07,1.69-5.39,2.22C465.76,17.92,449.51,24.6,433.15,31c-6.77,2.66-12.13,1.14-18.21-3.92-25.79-21.47-54.55-32.28-89-24.69-55.1,12.13-90.67,62.85-82.21,119.35.91,6.1-.61,7.81-6.77,7.24Q120.52,118.39,41.75,32.13C38.34,28.41,34.87,24.75,30,19.58,5.88,74.39,15.37,120,60.89,159.66c-17-.47-30.49-6.14-45.46-12.53,3.77,53.24,29.72,87.2,78.8,104.41C81,256,67.49,254.75,52.4,253.76c17.25,44.19,48.4,68,96.45,72.83C103.12,360.68,54.34,374.42,0,371.25a158,158,0,0,0,23.14,14c53.47,26.33,109.58,36.6,169.07,29.32,58.35-7.13,110.55-28.28,154.21-67.61,69.48-62.59,103.65-141.44,103.67-235,0-5,.84-8.63,5.11-12a201.52,201.52,0,0,0,22-19.65c8.06-8.48,15.22-17.83,22.77-26.8l-1.34-1.21L448,66.47l-1.54-2.55C465.51,50.14,479.71,32.91,487.45,9.12Z"/><path class="cls-1" d="M487.45,9.12c-7.74,23.79-21.94,41-41,54.8L448,66.47l50.67-14.09L500,53.59c-7.55,9-14.71,18.32-22.77,26.8a201.52,201.52,0,0,1-22,19.65c-4.27,3.36-5.11,7-5.11,12,0,93.53-34.19,172.38-103.67,235-43.66,39.33-95.86,60.48-154.21,67.61-59.49,7.28-115.6-3-169.07-29.32A158,158,0,0,1,0,371.25c54.34,3.17,103.12-10.57,148.85-44.66-48-4.87-79.2-28.64-96.45-72.83,15.09,1,28.6,2.23,41.83-2.22-49.08-17.21-75-51.17-78.8-104.41,15,6.39,28.44,12.06,45.46,12.53C15.37,120,5.88,74.39,30,19.58c4.83,5.17,8.3,8.83,11.71,12.55Q120.64,118.25,236.92,129c6.16.57,7.68-1.14,6.77-7.24C235.23,65.27,270.8,14.55,325.9,2.42c34.49-7.59,63.25,3.22,89,24.69,6.08,5.06,11.44,6.58,18.21,3.92,16.36-6.43,32.61-13.11,48.91-19.69C483.38,10.81,484.7,10.25,487.45,9.12Z"/></g></g></g></svg>